<?xml version="1.0" encoding="UTF-8"?>
<svg id="uuid-543daca9-789b-436d-b69b-087de1bef4c0" data-name="图层 2" xmlns="http://www.w3.org/2000/svg" viewBox="0 0 1024 1024">
  <defs>
    <style>
      .uuid-62bc5c8d-a88a-4745-98e1-df3c6e9e9277 {
        fill: none;
      }

      .uuid-62bc5c8d-a88a-4745-98e1-df3c6e9e9277, .uuid-08bfb1f1-28dd-4433-b0a9-286f1f301b26 {
        stroke-width: 0px;
      }

      .uuid-08bfb1f1-28dd-4433-b0a9-286f1f301b26 {
        fill: #000;
      }
    </style>
  </defs>
  <g id="uuid-39b4e0ca-8ceb-42af-9456-82a9e4d0abfa" data-name="图层 1">
    <g>
      <path class="uuid-08bfb1f1-28dd-4433-b0a9-286f1f301b26" d="M415.23,391.48c22.15-15,45.95-26.84,70.67-36.91,25.73-10.48,52.24-18.4,79.38-24.28,20.65-4.47,41.45-7.45,62.62-7.13,11.07.16,22,1.38,32.62,4.8,21.69,6.99,34.07,22.68,36.23,45.43,1.33,14.04-.32,27.76-3.3,41.42-5.18,23.73-14.05,46.17-24.14,68.15-13.28,28.95-28.7,56.73-46.47,83.16-14.16,21.06-29.71,41.04-48.04,58.68-23.5,22.62-50.38,39.52-82.77,45.93-40.1,7.94-76.9-.14-109.41-25.19-29.83-22.99-47.52-53.54-53.66-90.59-4.75-28.67-.38-56.26,12.07-82.48,10.77-22.68,26.49-41.6,44.99-58.38,9.16-8.3,18.96-15.74,29.21-22.61ZM545.61,641.93c6.65-4.43,12.68-9.61,18.61-14.91,19.3-17.26,35.36-37.31,50-58.55,16.32-23.68,30.77-48.46,43.35-74.32,11.98-24.61,22.82-49.68,29.37-76.37,3.66-14.91,6.35-29.99,4.39-45.45-2.51-19.87-13.02-33.3-32.32-39.44-7.04-2.24-14.29-3.47-21.64-4.09-18.66-1.56-37.14.14-55.49,3.34-48.23,8.39-93.99,24.03-137.3,46.92-26.25,13.87-49.82,31.17-69.92,53.07-16.83,18.33-30.13,38.88-36.62,63.07-13.36,49.78-2.78,94.29,32.29,132.04,27.25,29.34,61.81,42.46,101.78,40.67,27.05-1.21,51.25-10.97,73.5-25.99Z"/>
      <g>
        <path class="uuid-08bfb1f1-28dd-4433-b0a9-286f1f301b26" d="M414.89,390.97c29.42-19.22,61.34-34.48,94.4-46.33,33.31-11.44,67.45-20.76,102.79-23.6,47.73-3.8,90.16,8.41,89.42,64.45-1.1,50.34-28.52,106.41-52.51,149.98-29.28,50.49-65.99,103.35-119.95,129.54-29.57,13.94-63.91,18.45-95.89,11.04-28.85-6.94-54.73-23.92-74.16-46.14-1.61-1.98-4.21-5-5.68-7.06,0,0-2.71-3.63-2.71-3.63-.84-1.22-2.98-4.44-3.79-5.63-.79-1.26-2.71-4.52-3.5-5.81-1.19-2.25-3.14-5.71-4.19-8.01-3.2-6.6-6.13-13.93-8.22-20.96-24.51-77.93,19.54-146.48,83.99-187.83h0ZM415.57,391.98c-37.88,25.92-71.46,62.9-82.01,108.47-10.43,44.3,3.45,94.01,35.29,126.35,17.7,17.98,40.13,31.88,64.81,37.63,30,7.01,62.22,2.36,89.94-10.83,50.94-25.11,86.45-76.55,114.99-124.13,11.66-19.99,22.23-40.68,31.62-61.83,9.23-21.02,17.13-42.85,20.97-65.45,6.27-38.11-2.44-67.08-44.47-74.46-66.5-10.43-176.38,25.63-231.15,64.25h0Z"/>
        <path class="uuid-08bfb1f1-28dd-4433-b0a9-286f1f301b26" d="M545.27,641.42c50.97-34.88,92.57-107.85,117.37-163.78,12.93-29.95,28.75-72.12,24.58-104.66-1.7-12.93-8.05-24.96-19.78-31.22-21.81-11.7-56.22-8.65-80.17-4.67-44.13,7.61-87.2,21.53-127.34,41.37-20.05,9.81-39.19,21.06-56.43,35.17-16.96,13.93-32.68,29.99-44.47,48.51-23.24,36.77-28.95,85.53-10.83,125.54,7.34,16.29,18.23,31.21,30.96,43.79,26.97,27.13,65.85,38.37,103.6,34.04,22.44-2.6,43.71-11.7,62.52-24.08h0ZM545.95,642.43c-23.34,16.41-51.19,27.14-79.97,27.32-35.48.97-69.09-11.47-94.46-36.54-30.31-29.29-47.21-68.08-43.66-110.55,3.25-38.29,16.72-66.46,42.34-94.76,23.41-25.98,52.71-45.9,84.07-60.93,31-15.16,63.67-26.95,97.31-34.67,33.75-7.5,69.39-13.86,103.66-5.68,43.97,11.09,45.7,51.67,35.9,88.82-8.35,33.38-23.36,64.51-39.43,94.74-16.36,29.94-34.94,58.77-56.6,85.17-10.88,13.14-22.87,25.33-35.73,36.54-4.28,3.74-8.71,7.34-13.43,10.55h0Z"/>
      </g>
    </g>
    <path class="uuid-08bfb1f1-28dd-4433-b0a9-286f1f301b26" d="M473.5,587.25c-2.73,1.85-4.98,3.31-7.44,4.4-11.07,4.92-20.46,2.02-27.01-8.21-6.51-10.18-8.4-21.59-8.75-33.31-.85-28.86,5.85-55.99,19.57-81.34,5.23-9.67,11.63-18.51,20.86-24.9,1.4-.97,2.88-1.75,4.47-2.36,6.98-2.67,12.61-.15,15.23,6.93,2.84,7.7,2.42,15.63,1.5,23.57-.32,2.76-.8,5.51-1.74,8.15-.54,1.51-1.19,2.98-2.35,4.1-1.57,1.53-3.42,2.53-5.66,1.71-2.33-.86-2.94-2.92-2.74-5.11.34-3.76.93-7.49,1.39-11.24.42-3.46.68-6.94-.31-10.35-1.3-4.5-4.59-5.95-8.73-3.7-4.32,2.35-7.23,6.15-9.75,10.25-6.93,11.27-10.44,23.77-13.09,36.58-3.21,15.53-3.95,31.12-1.14,46.79.78,4.32,2.1,8.48,4.16,12.38,4.99,9.43,13.44,11.77,22.48,6.11,7.92-4.96,14.22-11.75,20.24-18.77,8.1-9.44,15.22-19.6,21.54-30.32,1.07-1.82,2.01-4.81,5.02-3.22,2.64,1.39,1.77,3.98.78,6.08-11.07,23.45-24.64,45.14-44.34,62.46-1.49,1.31-3.11,2.47-4.19,3.33Z"/>
    <path class="uuid-08bfb1f1-28dd-4433-b0a9-286f1f301b26" d="M598.58,405.84c8.26,13.42,14.07,27.63,13.36,43.75-.42,9.65-4.66,17.38-13.14,22.4-8.99,5.33-18.48,3.64-25.03-4.53-8.2-10.24-11.51-22.53-14.24-35-1.45-6.65-1.9-13.38-.26-20.1,2.14-8.79,7.46-14.83,15.96-17.82,6.2-2.18,11.74-.41,16.63,3.72,2.6,2.19,4.76,4.79,6.71,7.59ZM590.47,410.52c-1.31-1.81-2.66-3.5-4.35-4.93-4.76-4.03-10.01-3.81-14.33.67-2.89,3-4.29,6.64-4.4,10.77-.3,10.68,3.05,20.55,6.91,30.26,1.98,4.97,4.06,9.97,8.06,13.78,6.07,5.78,13.84,4.58,17.9-2.75,1.36-2.45,2.23-5.06,2.36-7.92.64-14.74-5.39-27.42-12.14-39.88Z"/>
    <path class="uuid-08bfb1f1-28dd-4433-b0a9-286f1f301b26" d="M523.3,429.2c10.46-7.21,20.98-4.16,25.91,7.58,3.46,8.24,2.5,16.54.02,24.79-3.1,10.29-7.85,19.96-11.32,30.12-1.03,3.03-1.91,6.09-1.53,9.33.16,1.36.28,2.98,1.73,3.59,1.56.65,2.84-.35,3.99-1.37,7.06-6.27,14.44-12.14,21.85-17.99.78-.61,1.58-1.21,2.41-1.75,2.02-1.3,4.03-1.26,5.63.59,1.57,1.81,1.45,3.84.01,5.73-1.65,2.16-3.96,3.6-5.99,5.34-8.3,7.1-16.67,14.13-25.02,21.17-.61.51-1.26.96-1.92,1.41-3.91,2.66-6.69,2-9.18-2.07-3.29-5.36-3.81-11.16-3-17.24,1.21-9.09,4.88-17.36,8.47-25.66,2.21-5.11,4.25-10.29,5.75-15.65,1.48-5.32,1.61-10.58-1.06-15.64-3.44-6.53-10.17-7.6-15.58-2.52-5.11,4.79-6.38,10.81-5.58,17.43.3,2.51-.19,4.63-2.65,5.24-2.75.68-3.75-1.57-4.37-3.81-2.78-10.08,2.05-22.18,11.42-28.64Z"/>
    <rect class="uuid-62bc5c8d-a88a-4745-98e1-df3c6e9e9277" width="1024" height="1024"/>
  </g>
</svg>