<?xml version="1.0" encoding="UTF-8"?>
<svg id="uuid-d1a010b1-d27d-4236-a96c-37d1475b58ba" data-name="图层 2" xmlns="http://www.w3.org/2000/svg" viewBox="0 0 586.24 121.13">
  <defs>
    <style>
      .uuid-9063ae99-63fa-46b5-a890-8c60120c582b, .uuid-063d8512-00b3-4b24-a0a4-d45f19352442, .uuid-7adcd6e9-69e4-4e4e-b75f-1fd7fad1fc3b, .uuid-f111e43f-594e-47a9-a73c-69209071e5a2, .uuid-0fda4b9b-a676-4079-bfdd-44b4c8135634 {
        stroke-width: 0px;
      }

      .uuid-9063ae99-63fa-46b5-a890-8c60120c582b, .uuid-7adcd6e9-69e4-4e4e-b75f-1fd7fad1fc3b {
        fill: #3d96f7;
      }

      .uuid-063d8512-00b3-4b24-a0a4-d45f19352442 {
        fill: #000;
      }

      .uuid-7adcd6e9-69e4-4e4e-b75f-1fd7fad1fc3b {
        fill-rule: evenodd;
      }

      .uuid-f111e43f-594e-47a9-a73c-69209071e5a2 {
        fill: #fff;
      }

      .uuid-0fda4b9b-a676-4079-bfdd-44b4c8135634 {
        fill: #0000c9;
      }
    </style>
  </defs>
  <g id="uuid-0b23a58a-8ce6-40c4-8969-592899310175" data-name=" 图层 2">
    <path class="uuid-9063ae99-63fa-46b5-a890-8c60120c582b" d="M561.55,10.66c.7-1.54,1.65-2.85,2.83-3.93,1.19-1.08,2.55-1.92,4.11-2.51,1.55-.59,3.17-.89,4.88-.89s3.32.3,4.88.89c1.55.59,2.92,1.43,4.1,2.51,1.19,1.08,2.13,2.39,2.83,3.93.7,1.54,1.06,3.25,1.06,5.15s-.35,3.65-1.06,5.19c-.7,1.54-1.65,2.85-2.83,3.95-1.18,1.09-2.55,1.93-4.1,2.51-1.56.58-3.18.87-4.88.87s-3.32-.29-4.88-.87c-1.55-.58-2.92-1.42-4.11-2.51-1.18-1.09-2.13-2.41-2.83-3.95-.71-1.54-1.06-3.27-1.06-5.19s.35-3.61,1.06-5.15ZM564.66,19.74c.49,1.2,1.16,2.25,2.01,3.12.85.88,1.85,1.56,3,2.05s2.38.73,3.7.73,2.52-.24,3.67-.73c1.15-.49,2.15-1.17,3-2.05s1.52-1.92,2.02-3.12c.5-1.2.75-2.52.75-3.94s-.25-2.74-.75-3.93-1.18-2.22-2.02-3.09c-.85-.87-1.85-1.55-3-2.04s-2.37-.73-3.67-.73-2.55.24-3.7.73c-1.15.49-2.15,1.17-3,2.04s-1.52,1.9-2.01,3.09c-.49,1.19-.74,2.5-.74,3.93s.24,2.74.74,3.94ZM573.64,8.8c1.77,0,3.13.31,4.08.94.95.62,1.43,1.7,1.43,3.21,0,.65-.1,1.2-.29,1.66-.18.46-.45.83-.78,1.12s-.72.51-1.17.67-.92.26-1.43.31l3.76,6.1h-2.93l-3.43-5.99h-1.75v5.99h-2.79v-14.01h5.3ZM573.61,14.67c.8,0,1.46-.12,1.98-.34.51-.22.77-.77.77-1.62,0-.38-.09-.69-.27-.91s-.41-.4-.69-.52c-.28-.13-.59-.21-.94-.25-.34-.04-.68-.07-.99-.07h-2.34v3.72h2.48,0Z"/>
    <path class="uuid-f111e43f-594e-47a9-a73c-69209071e5a2" d="M.92,72.85q0-.06,0,0c.06-.11.06-.17.06-.23l-.06.23Z"/>
    <path class="uuid-9063ae99-63fa-46b5-a890-8c60120c582b" d="M10.37,64.09c10.65-4.81,29.15-6.24,52.75-3.49l6.7-23.54c-34.13-4.18-58.99.52-63.17,15.41l-.17.57c-.69,3.55.74,7.27,3.89,11.05Z"/>
    <path class="uuid-0fda4b9b-a676-4079-bfdd-44b4c8135634" d="M115.86,57.1c-10.65,4.81-29.15,6.24-52.75,3.49l-6.7,23.54c34.08,4.18,58.93-.52,63.11-15.41l.17-.57c.69-3.55-.69-7.27-3.84-11.05Z"/>
    <path class="uuid-9063ae99-63fa-46b5-a890-8c60120c582b" d="M29.38,0l-6.7,23.54c39.92,2.75,80.46,18.33,93.12,33.56,4.87-2.23,8.13-5.15,9.45-8.76l-5.61,19.76c-.06.17-.06.4-.11.57l4.52-15.92c1.49-4.98,2.18-7.62,2.18-9.68C126.22,24.91,76.63,2.75,29.38,0Z"/>
    <path class="uuid-9063ae99-63fa-46b5-a890-8c60120c582b" d="M115.86,57.1c3.15,3.78,4.58,7.5,3.84,11.05l5.61-19.76c-1.32,3.55-4.58,6.47-9.45,8.71Z"/>
    <path class="uuid-0fda4b9b-a676-4079-bfdd-44b4c8135634" d="M10.37,64.09c-4.87,2.23-8.13,5.15-9.45,8.71-.63,2.35-.92,3.89-.92,5.27,0,18.21,49.6,40.32,96.84,43.07l6.64-23.54c-39.92-2.75-80.46-18.33-93.12-33.5Z"/>
    <path class="uuid-f111e43f-594e-47a9-a73c-69209071e5a2" d="M6.64,52.46l-4.47,15.92c-.46,1.66-.86,3.04-1.2,4.24l5.5-19.59c.06-.17.11-.4.17-.57Z"/>
    <path class="uuid-0fda4b9b-a676-4079-bfdd-44b4c8135634" d="M10.37,64.09c-3.15-3.78-4.58-7.5-3.84-11L.97,72.62c0,.06-.06.11-.06.17,1.32-3.61,4.52-6.53,9.45-8.71Z"/>
    <path class="uuid-7adcd6e9-69e4-4e4e-b75f-1fd7fad1fc3b" d="M221.53,14.94v40.58c0,1.16.91,2.1,2.07,2.1h13.78c1.17,0,2.11-.95,2.11-2.12V14.94c0-1.16-.93-2.11-2.09-2.12,0,0,0,0,0,0h-13.76c-1.16,0-2.1.95-2.1,2.12h0ZM325.49,54.42c.67.94.45,2.25-.49,2.92-.36.26-.79.39-1.23.39h-14.37c-.77,0-1.5-.32-2.03-.88l-4.75-6.52c-.54-.66-1.35-1.04-2.2-1.04h-33.93c-.93,0-1.67.45-2.18,1.14l-4.27,5.87c-.5.87-1.42,1.42-2.43,1.42h-.02s-.02,0-.02,0h-13.8c-1.16,0-2.16-.95-2.16-2.11,0-.51.18-.99.51-1.38l30.97-40.12c.51-.7,1.35-1.2,2.28-1.2h16.75c1.05,0,1.96.59,2.44,1.45l30.92,40.04h0ZM293.68,38.05l-8.37-11.54c-.39-.61-1.06-.98-1.78-.98-.68,0-1.32.34-1.72.89l-8.45,11.64c-.27.36-.42.81-.42,1.26,0,1.16.95,2.1,2.12,2.1h16.91c1.17,0,2.12-.93,2.14-2.1,0-.46-.15-.91-.43-1.28h0ZM568.98,54.42c.22.34.38.78.38,1.21,0,1.16-.94,2.1-2.1,2.1,0,0,0,0,0,0h-14.37c-.79,0-1.52-.35-2.02-.88l-4.75-6.52c-.54-.66-1.35-1.04-2.2-1.04h-33.93c-.93,0-1.67.45-2.18,1.14l-4.27,5.87c-.49.88-1.42,1.42-2.43,1.42h-13.85c-1.16,0-2.16-.94-2.16-2.11,0-.53.19-1,.51-1.38l30.97-40.11c.51-.7,1.35-1.2,2.28-1.2h16.76c1.05,0,1.96.59,2.44,1.45l30.92,40.04h0ZM537.17,38.05l-8.38-11.54c-.39-.61-1.06-.98-1.78-.98-.68,0-1.32.34-1.71.89l-8.45,11.64c-.27.36-.42.81-.42,1.26,0,1.16.95,2.1,2.12,2.1h16.91c1.17,0,2.13-.93,2.15-2.1,0-.46-.15-.91-.43-1.28h0ZM427.73,31.75c-1.16,0-2.11-.95-2.11-2.12v-6.74c0-1.16.94-2.11,2.11-2.11h25.76c7.12,0,8.85,1.07,10.17,2.15,1.22,1.08,1.43,2.6,1.43,3.49,0,5.01-6.92,5.32-10.78,5.32h-26.58ZM466.14,57.73h14.61c1.16,0,2.1-.92,2.11-2.08,0-.56-.22-1.11-.62-1.5l-17.56-15.22c2.84-.31,7.8-.94,11.64-2.77,5.06-2.39,6.89-6.43,6.89-9.86,0-2.6-1.01-5.96-4.66-8.61-5.97-4.3-13.36-4.74-21.5-4.74h-47.33c-1.15-.01-2.09.92-2.09,2.08,0,0,0,.01,0,.02v40.6c0,1.15.92,2.09,2.07,2.1,0,0,.01,0,.02,0h13.8c1.16,0,2.1-.94,2.1-2.11h0s0-13.92,0-13.92c0-1.16.93-2.1,2.09-2.1h17.53c.58,0,1.13.25,1.51.64l17.88,16.85c.39.4.93.64,1.52.64h0ZM188.52,57.6c.68.21,1.23-.34,1.61-.87l28.91-40.48c.27-.36.41-.8.41-1.25,0-1.17-.96-2.1-2.13-2.1h-14.04c-.85,0-1.62.49-1.96,1.27l-18.23,28.02c-1.22,1.71-1.42,2.22-2.33,4.25-.71-1.84-1.01-2.41-2.13-4.25l-18.46-28.3c-.42-.65-1.14-1.06-1.92-1.07l-14.5.02c-1.15-.02-2.1.9-2.12,2.05,0,0,0,.01,0,.02,0,.47.17.88.42,1.23l29.45,40.72c.39.48.98.75,1.6.76l15.42-.02c-.14,0,.13.04,0,0h0Z"/>
    <path class="uuid-7adcd6e9-69e4-4e4e-b75f-1fd7fad1fc3b" d="M384.04,25.34c.39.28.93.52,1.45.52.07,0,.2-.02.26-.02l14.04-1.21c1.16,0,2.11-.95,2.11-2.11,0-.61-.27-1.2-.73-1.6-2.11-1.8-3.69-2.98-9.29-5.15-9.85-3.73-21.11-4.24-28.11-4.24-5.58,0-24.15,0-36.04,7.9-6.41,4.28-9.77,9.88-9.77,15.67,0,10.7,9.36,23.9,43.26,23.9,10.86,0,21.92-1.77,29.62-6.44v3.06c0,1.16.93,2.11,2.09,2.11h9.51c1.17,0,2.11-.94,2.12-2.11v-19.79c.02-1.16-.93-2.11-2.09-2.11h-34.38c-1.16-.01-2.1.93-2.11,2.09h0s-.01,3.85-.01,3.85c0,1.16.96,2.06,2.12,2.06h16.63c1.16.01,2.11.96,2.11,2.12h0c0,.75-.4,1.44-1.03,1.83-.61.37-1.31.81-2.16,1.23-4.46,2.24-11.56,3.96-20.08,3.96-17.45,0-27.09-6.89-27.09-15.62,0-9.88,11.26-15.42,26.58-15.42,12.42,0,17.9,3.28,20.98,5.52h0Z"/>
    <path class="uuid-063d8512-00b3-4b24-a0a4-d45f19352442" d="M189.28,111.29h-9.62v5.76h-6.03v-5.76h-9.85v-2.3c-5.57,2.76-6.82,3.45-7.51,4.19-.32-1.61-1.38-5.3-2.26-6.95.83-.6,1.52-1.75,1.52-3.59v-7.51h-1.2c-.18,9.39-.97,16.9-4.79,21.88-.83-1.57-2.58-3.73-4.05-4.79,2.76-3.82,3.22-9.58,3.32-17.08h-2.76v-6.17h6.12v-1.75l-4.47,1.11c-.18-2.95-.92-7.46-1.61-10.87l4.42-1.01c.69,2.99,1.34,6.63,1.66,9.44v-12.11h5.57v12.25c.83-2.95,1.61-6.91,1.98-9.85l4.79,1.01v-3.13h24.64v8.1h-5.76v-3.13h-13.4v3.13h-5.48v-2.99c-.97,3.32-2.03,6.77-2.9,9.07l-3.87-1.01v1.75h6.59v6.17h-3.32v9.58l2.35-1.06c.05.97.23,2.26.41,3.36v-1.29h9.85v-1.47h-7.74v-14.74h7.74v-1.47h-8.2v-5.16h8.2v-2.95h6.03v2.95h8.2v5.16h-8.2v1.47h8.1v14.74h-8.1v1.47h9.62v5.57ZM171.05,94.99h2.58v-1.47h-2.58v1.47ZM173.63,100.24v-1.52h-2.58v1.52h2.58ZM179.66,93.52v1.47h2.67v-1.47h-2.67ZM182.33,98.72h-2.67v1.52h2.67v-1.52Z"/>
    <path class="uuid-063d8512-00b3-4b24-a0a4-d45f19352442" d="M207.61,103.1l.83,5.99c-4.47,1.29-9.35,2.58-13.4,3.64l-1.2-6.36c1.24-.23,2.67-.55,4.19-.88v-10.41h-3.59v-6.12h3.59v-7.05h-3.87v-6.17h13.95v6.17h-4.01v7.05h3.04v6.12h-3.04v8.93l3.5-.92ZM225.52,95.41l-.69,2.17h11.93v13.58c0,2.26-.37,3.91-1.7,4.93-1.34,1.01-2.76,1.2-4.65,1.2-.18-1.33-.78-3.22-1.47-4.7v4.05h-5.3v-13.49h-1.75v13.49h-5.3v-13.49h-1.61v13.95h-5.99v-19.53h9.72c.14-.69.23-1.43.32-2.17h-10.78v-5.94h28.83v5.94h-11.56ZM235.61,87.76h-25.88v-12.43h5.99v6.63h3.68v-8.61h6.17v8.61h3.73v-6.63h6.31v12.43ZM230.72,103.14h-1.8v8.33h1.34c.32-.05.46-.14.46-.51v-7.83Z"/>
    <path class="uuid-063d8512-00b3-4b24-a0a4-d45f19352442" d="M284.14,89.05c-1.29,7.28-3.36,13.54-6.4,18.7.6,1.89,1.2,2.95,1.8,2.95.65,0,1.06-2.35,1.15-7.55,1.38,1.47,3.45,2.95,5.11,3.68-.88,8.33-2.72,10.27-7,10.27-2.12,0-3.82-1.38-5.2-3.73-1.38,1.47-2.85,2.81-4.51,4.01-.87-1.2-3.27-3.59-4.6-4.65l.41-.23c-.88-.64-1.89-1.33-3.04-2.03-2.26,2.07-4.93,3.73-8.01,4.93-.64-1.38-2.03-3.45-3.09-4.56,2.26-.74,4.33-1.84,6.12-3.22-1.84-.97-3.78-1.89-5.53-2.62.78-1.43,1.57-3.13,2.35-5.02h-1.89v-4.84h3.73c.32-.97.64-1.93.92-2.85h-4.24v-5.07h15.38v5.07h-5.39c-.28.92-.55,1.89-.88,2.85h3.68l.97-.14,3.32,1.06c-.37-3.36-.64-6.95-.78-10.59h-17.27v7.46c0,7.05-.74,17.59-4.97,23.95-1.01-1.15-3.64-3.32-5.02-4.01,3.55-5.62,3.82-13.86,3.82-19.94v-13.49h23.21c0-2.03-.05-4.05-.05-6.03h6.54c-.05,1.98-.09,4.01-.05,6.03h4.28c-1.2-.97-2.76-1.98-4.05-2.72l3.68-3.78c1.93.97,4.51,2.53,5.85,3.73l-2.62,2.76h2.99v6.03h-9.99c.18,4.24.55,8.33.97,11.93.97-2.81,1.66-5.89,2.16-9.21l6.12.88ZM259.59,99.97c-.37.97-.74,1.93-1.15,2.81.74.32,1.43.69,2.12,1.06.88-1.2,1.61-2.49,2.16-3.87h-3.13ZM265.39,112.12c2.21-1.47,4.1-3.32,5.71-5.43-.74-2.95-1.34-6.36-1.75-9.99-.88,3.82-2.26,7.05-4.05,9.72,1.15.64,2.21,1.29,3.09,1.89l-2.99,3.82Z"/>
    <path class="uuid-063d8512-00b3-4b24-a0a4-d45f19352442" d="M314.53,81.45c-.46,1.33-.97,2.67-1.43,3.87h17.91v25.14c0,2.9-.51,4.51-2.35,5.53-1.84.97-4.14,1.11-7.14,1.11-.23-1.34-.83-3.22-1.47-4.74v3.41h-6.68v-24.22h-3.68v24.22h-6.68v-24.22h-3.59v25.56h-6.91v-31.78h13.17c.32-1.24.64-2.58.92-3.87h-16.12v-6.82h42.32v6.82h-18.28ZM324.2,91.54h-4.14v19.62c1.33.05,2.86,0,3.32,0,.6,0,.83-.18.83-.78v-18.83Z"/>
    <path class="uuid-063d8512-00b3-4b24-a0a4-d45f19352442" d="M379.87,110.56c0,2.81-.46,4.47-2.12,5.43-1.7.97-4.01,1.11-7.41,1.11-.14-1.61-.92-4.28-1.7-5.8,1.98.09,4.19.09,4.88.09.65-.05.88-.23.88-.92v-29.89h-13.58v36.52h-5.43v-34.03l-2.16,3.68-.28-.28v3.68h-3.78v2.72h5.16v5.43h-5.16v7.74c.46-1.93.92-4.6,1.11-6.49l4.42,1.01c-.69,2.53-1.29,5.2-1.8,7l-3.73-.92v2.12l5.53-.92.46,5.48c-5.34,1.11-11.1,2.21-15.61,3.04l-1.33-5.89c1.61-.23,3.5-.51,5.53-.83v-2.17l-3.91,1.11c-.09-2.12-.69-5.3-1.29-7.74l3.91-.97c.51,1.75,1.01,3.96,1.29,5.76v-7.32h-4.83v-5.43h4.83v-2.72h-3.22v-1.84l-.6.51c-.37-1.38-1.61-4.84-2.35-6.36,2.86-2.16,5.85-5.66,7.6-9.3l4.61,2.12c-.23.46-.42.92-.64,1.38,2.35,1.33,4.65,2.85,6.26,4.19v-6.08h24.5v35.78ZM351.13,84.86c-1.43-1.15-3.09-2.39-4.84-3.5-.83,1.24-1.66,2.39-2.58,3.5h7.42ZM361.72,95.22h3.18v8.43h.92v-9.95h-4.28v-4.83h6.31c.6-2.35,1.2-5.62,1.43-7.97l4.61,1.06c-.69,2.35-1.34,4.88-1.98,6.91h1.7v4.83h-4.28v9.95h.92v-8.43h3.18v13.26h-11.7v-13.26ZM365.41,81.13c.83,2.03,1.57,4.7,1.75,6.35l-3.87,1.11c-.14-1.7-.83-4.47-1.57-6.54l3.68-.92Z"/>
    <path class="uuid-063d8512-00b3-4b24-a0a4-d45f19352442" d="M429.36,99.83c-2.12,1.52-4.1,3.18-5.89,4.47,1.7,2.49,3.78,4.56,6.26,5.94-1.38,1.2-3.36,3.64-4.33,5.34-2.17-1.57-3.96-3.68-5.48-6.17v1.29c0,2.81-.46,4.47-2.26,5.48-1.75.97-4.01,1.06-6.91,1.06-.23-1.8-.97-4.42-1.75-6.08,1.43.09,3.27.09,3.82.05.55,0,.74-.14.74-.64v-10.5c-1.47,6.72-4.47,11.83-9.07,14.83-.78-1.38-2.53-3.55-3.73-4.65.74-.46,1.47-1.01,2.12-1.7l-4.14,1.47c-.23-1.61-.88-4.1-1.47-5.94l4.28-1.38c.6,1.8,1.29,4.01,1.61,5.57,1.38-1.43,2.49-3.22,3.32-5.16h-3.04v-2.07l-5.02,1.61c-.05-.51-.14-1.06-.23-1.66-7.83,1.11-9.49,1.57-10.59,2.12-.32-1.24-1.38-4.33-2.12-5.99,1.34-.37,2.35-1.34,3.87-3.04.46-.51,1.29-1.47,2.21-2.76-2.67.32-3.64.6-4.33.92-.32-1.2-1.33-4.1-2.03-5.71.97-.23,1.7-1.06,2.58-2.39.88-1.29,3.41-6.22,4.74-10.96l6.03,2.44c-1.38,3.41-3.41,7.09-5.43,10.18l2.12-.14c1.2-1.93,2.3-4.05,3.22-6.17l5.62,3.55c-1.66,3.13-3.78,6.31-6.03,9.26l3.08-.88c.97,2.95,1.93,6.77,2.3,9.3v-2.95h5.43l1.01-.18,3.68,1.24v-3.36h-8.52v-17.22h6.26c.55-1.66,1.11-3.45,1.38-4.93l7.69,1.29c-.69,1.24-1.38,2.49-2.07,3.64h9.53v17.22h-7.92v1.43c.28.92.64,1.84,1.01,2.72,1.29-1.33,2.62-2.76,3.5-4.01l4.93,4.24ZM392.29,104.99c-.23,4.38-.92,8.98-1.89,11.93-1.11-.6-3.55-1.33-4.83-1.7,1.06-2.76,1.52-7.04,1.7-11.01l5.02.78ZM397.08,104.16c.46,3.08.83,7.05.92,9.72l-4.88.92c.05-2.67-.28-6.72-.64-9.81l4.61-.83ZM397.18,95.82c-.14-.65-.28-1.29-.46-1.89-.6.74-1.2,1.47-1.8,2.17l2.26-.28ZM421.35,83.16h-10.13v1.38h10.13v-1.38ZM411.22,90.53h10.13v-1.43h-10.13v1.43Z"/>
    <path class="uuid-063d8512-00b3-4b24-a0a4-d45f19352442" d="M476.79,108.02v6.77h-42.5v-6.77h16.16v-34.17h7.23v12.71h15.84v6.77h-15.84v14.69h19.11Z"/>
    <path class="uuid-063d8512-00b3-4b24-a0a4-d45f19352442" d="M512.61,107.7c3.55,1.8,8.06,3.08,12.76,3.78-1.33,1.24-3.08,3.68-3.96,5.3-5.53-1.24-10.64-3.64-14.6-6.86v7.18h-6.63v-7.37c-3.96,3.27-9.12,5.8-14.51,7.18-.88-1.57-2.67-3.96-4.01-5.2,4.24-.83,8.47-2.21,11.88-4.01h-10.64v-5.57h17.27v-1.84h-3.45l.05.37-4.05,1.2c0-.41-.05-.83-.14-1.33-5.62.69-6.82.97-7.55,1.33-.23-.88-.88-3.04-1.38-4.24.83-.18,1.57-.92,2.44-2.03.41-.51,1.24-1.7,2.21-3.22-2.4.28-3.22.51-3.73.78-.28-.92-.92-3.04-1.43-4.19.55-.14,1.06-.55,1.57-1.24.42-.64,1.89-2.95,2.67-5.34l4.19,1.57c-.74,1.52-1.8,3.18-2.81,4.56l1.8-.09c.37-.78.74-1.57,1.06-2.35l4.01,1.98c-1.2,2.21-2.62,4.42-4.14,6.49l3.59-1.01c.32.83.6,1.75.87,2.67v-11.38h3.87c.37-1.24.74-2.58.92-3.64l6.49,1.06c-.46.92-.97,1.8-1.38,2.58h5.25v15.47h-4.28v1.84h17.36v5.57h-11.56ZM492.07,81.09h-9.26v-5.53h9.26v-2.21h6.63v2.21h9.49v-2.21h6.68v2.21h9.44v5.53h-9.44v2.44h-6.68v-2.44h-9.49v2.44h-6.63v-2.44ZM491.94,96.88c-.18-.74-.41-1.47-.64-2.12-.6.78-1.24,1.61-1.89,2.35l2.53-.23ZM501.47,90.53h3.82v-1.38h-3.82v1.38ZM501.47,95.96h3.82v-1.43h-3.82v1.43ZM520.76,101.81c0-.41-.05-.83-.14-1.34-5.85.69-7.05.97-7.78,1.34-.23-.88-.88-3.04-1.38-4.24.83-.18,1.57-.92,2.49-2.03.46-.51,1.33-1.7,2.35-3.22-2.35.28-3.18.51-3.68.78-.23-.92-.92-3.04-1.38-4.19.51-.14,1.06-.55,1.52-1.24.46-.64,1.93-2.95,2.67-5.34l4.28,1.47c-.78,1.57-1.84,3.22-2.9,4.65l1.84-.09c.37-.78.78-1.57,1.1-2.35l4.01,1.93c-1.24,2.21-2.76,4.47-4.33,6.54l3.68-1.01c.88,2.21,1.57,5.2,1.7,7.14l-4.05,1.2ZM519.93,96.79c-.18-.74-.37-1.47-.6-2.16-.69.83-1.34,1.66-2.03,2.39l2.62-.23Z"/>
    <path class="uuid-063d8512-00b3-4b24-a0a4-d45f19352442" d="M571.64,91.72s-.05,1.84-.09,2.62c-.41,13.03-.88,18.33-2.21,20.12-1.11,1.52-2.26,2.03-3.78,2.3-1.34.28-3.32.32-5.53.28-.05-1.15-.37-2.67-.83-4.01h-10.87v2.81h-6.12v-16.16h18.6v11.24h1.11c.64.05,1.06-.14,1.47-.69.69-.88,1.06-4.24,1.33-12.71h-24.13c-.78,6.54-2.53,13.49-6.03,18.38-1.11-1.24-3.91-3.5-5.39-4.24,5.02-7.05,5.39-17.59,5.39-24.87v-11.47h33.57v14.05h-26.99c0,.74-.05,1.52-.09,2.35h30.58ZM541.2,80.9v2.9h20.22v-2.9h-20.22ZM554.6,104.89h-6.26v2.95h6.26v-2.95Z"/>
  </g>
</svg>