<?xml version="1.0" encoding="UTF-8"?>
<svg id="uuid-cd7d727a-498d-44f0-82cc-aed10be1f524" data-name="图层 2" xmlns="http://www.w3.org/2000/svg" viewBox="0 0 1024 1024">
  <defs>
    <style>
      .uuid-9ff5daf5-d81e-4b5e-83cc-3a559262b3f3 {
        fill: none;
      }

      .uuid-9ff5daf5-d81e-4b5e-83cc-3a559262b3f3, .uuid-e37f1512-37ec-410d-872e-150899f882b5 {
        stroke-width: 0px;
      }

      .uuid-e37f1512-37ec-410d-872e-150899f882b5 {
        fill: #0000c9;
      }
    </style>
  </defs>
  <g id="uuid-0d196177-87ff-4fc9-b837-909aa2a200be" data-name="Layer 1">
    <rect class="uuid-9ff5daf5-d81e-4b5e-83cc-3a559262b3f3" width="1024" height="1024"/>
    <g>
      <path class="uuid-e37f1512-37ec-410d-872e-150899f882b5" d="M601.16,471.82c-9.55,6.7-18.86,4.06-26.27-6.83s-.97-1.42-1.37-2.17l37.87-25.77c-1.19-3.4-2.84-6.85-4.79-9.73-9.04-13.29-24.08-17.86-40.73-6.54-16.65,11.33-20.73,38.67-8.74,56.29,11.99,17.62,29.51,19.65,47.89,7.14,18.38-12.51,14.3-13.74,17.01-21.83l-9.47-6.39c-2.08,6.34-6.09,12.01-11.4,15.83h0ZM572.56,430.08c5.62-3.82,10.98-2.14,16.43,5.87s1.03,1.58,1.49,2.49l-21.61,14.7c-3.38-10.04-2.18-19.01,3.68-23.01v-.06s0,0,0,0Z"/>
      <path class="uuid-e37f1512-37ec-410d-872e-150899f882b5" d="M413.74,518.77c-9.37-13.77-26.94-16.48-43.25-5.38l-31.53,21.45,35.83,103.8,19.91-13.55-13.2-38.26,17.27-11.75c19.77-13.45,27.73-37.55,14.96-56.31h0ZM384.13,570.03l-6.83,4.65-14.24-41.21,7.18-4.88c9.05-6.16,18.33-3.49,23.85,4.63,8.85,13.01,3.77,27.47-9.92,36.8l-.03.02h0Z"/>
      <path class="uuid-e37f1512-37ec-410d-872e-150899f882b5" d="M443.31,506.52l-3.33-9.66c-1.79-5.02-4.82-13.57-7.93-23.73-3.14-10.5-1.77-19.3,5-23.9s6.29-2.1,7.99.4c1.72,2.83.58,6,3.58,10.4s10.58,6.15,16.23,2.3,8.8-14.21,4.1-21.11c-7.25-10.65-21.14-11.45-35.04-1.98-20.39,13.88-24.93,36-12.62,72.12l50.18,146.96,19.29-13.12-43.59-127.29,20.05-13.64,20.03,57.77,19.29-13.12-23.99-69.18-39.3,26.74.08.05h0Z"/>
      <polygon class="uuid-e37f1512-37ec-410d-872e-150899f882b5" points="540.94 440.08 489.85 474.84 493.91 486.18 518.65 469.35 513.5 544.26 567.57 507.46 563.5 496.12 535.69 515.05 540.94 440.08"/>
      <path class="uuid-e37f1512-37ec-410d-872e-150899f882b5" d="M641.39,370.25c-6.9,4.7-11.21,14.17-10.66,27.35l-5.3-15.02-19.29,13.12,23.99,69.18,19.29-13.12-10.75-31.15c-4.44-12.71-4.61-28.03.04-31.19s9.52,7.27,18.16,1.4,6.11-12.58,2.52-17.85-11.88-6.94-18.01-2.76l.02.03h0Z"/>
    </g>
  </g>
</svg>