<?xml version="1.0" encoding="UTF-8"?>
<svg xmlns="http://www.w3.org/2000/svg" viewBox="0 0 332.54 78.77">

  <path fill="#fac034" d="M97.81,6.78l.59,1.79c-1.84,4.46.38,5.95-.59,8.85-.97,2.9-.48,4.36.48,8.23-.97,0-.64,2.77-.64,2.77.43-3.63-5.17,8.52-8.32,11.3-3.15,2.78-5.43,4.52-6.4,5.97l-6.82,4.26c-.17-.05-6.44,2.77-6.61,2.77-4.26,1.49-5.07.93-10.88,3.84-.96,0-10.76.85-11.73.85-9.6-2.35-6.75-2.54-16.21-5.12,0,.97-.61,5.76-1.58,4.79-.97-1.93-3.87-2.9-4.84-4.84-.97-4.84.97-9.68,1.93-14.52.97,0,1.93,0,1.93-.97,4.84-15.48,17.42-26.13,31.93-30.97.97,0,.97-.97.97-1.93,2.9-1.94,6.77-.97,9.67-3.87h1.94c.97.97,2.9,2.9,4.84.97,0,.97.97.97,1.94.97.97-.97.97-1.94,1.93-.97,1.94,1.93,5.81-.97,7.74,1.93,0-.97.97-.97,1.94-.97q.97.97,1.94,1.94l4.84,2.9ZM47.01,4.15c-2.59.19-7.92.08-9.15.49-2.15.72-5.44-.62-7.81-.24-4.02.65-7.4.7-11.66,1.92l-.97-.97c-2.9,0-4.84,2.9-7.74.97-.97,0-.97,2.9-1.94,2.9-.97-.97-2.9-.97-2.9-.97-1.93,6.78-2.9,13.55-3.87,20.32,0,2.9-.97,5.8.97,8.71-2.9,4.84.97,9.68-1.94,14.52,0,.97,1.94,2.9,1.94,3.87-.97,5.81-.04,9.42,1.24,14.54.39,1.4,4.6.08,4.1-1.28,0-.97-.51-7.45.46-7.45l-.97-.97c0-1.94-.97-4.84.97-6.77l-.97-.97c1.94-1.93.97-3.87,2.9-5.8,0-.97.97-2.9.97-4.84.97-2.9,2.9-6.77,3.87-9.68.97-.97,1.94-.97,2.9-2.9l.97.97c4.84-7.74,11.61-13.55,19.35-17.42,0,0,0-1.94.97-1.94,2.97-.85,2.49-1.47,7.61-3.67,1.52-.65,6.87-2.37,8.39-3.03,1.26-.54-6.07-.43-7.7-.32Z"/>
  <path fill="#1f7a21" d="M111.91,42.08c-.05,2.74-.82,5.87-2.8,8.73-5.1,6.66-11.03,11.86-17.72,16.31-.25-.3-.73-.9-.97-1.19-4.4,3.37-9.45,6.09-15.25,7.79-1.53.43-3.15.79-4.84,1.04-.04.01-.08.02-.12.03,0,0-.01-.01-.03-.01-.09.01-.18.03-.28.04-.71.15-2.66.71-5.6,1.15,3.72.09,7.29-.46,10.44-1.31,5.92-1.58,11.08-4.07,15.86-7.04-7.35,4.55-15.73,8.74-26.83,8.73-.56-.01-1.13-.05-1.7-.1-3.58.38-8.21.51-13.61-.23-6.32-.94-15.3-4.3-21.07-10.45-3.16-3.13-6.07-7.49-7.29-12.49-1.29-4.99-.73-10.11.66-14.34,2.9-8.55,8.19-14.46,13.41-19.25,5.3-4.78,10.91-8.35,16.24-11.03,10.52-5.46,20.88-6.54,23.67-5.85.04.02-5.63,0-12.41,2.09-6.85,2.01-14.98,5.83-22.32,11.21-7.31,5.34-14.04,12.36-17.41,20.34-3.63,7.96-1.85,16.11-.96,17.32-.17-.4-1.83-6.54.55-13.77,2.38-7.52,8.27-14.68,15.03-20.04,6.78-5.44,14.55-9.45,21.27-11.69,6.71-2.28,12.42-2.57,13.88-2.12.03.03-4.45.28-10.29,2.22-5.84,1.91-13.07,5.4-19.53,10.28-6.45,4.83-12.25,11.15-15.07,17.8-3.01,6.63-1.89,13.1-.51,14.37.05.08-.94-4.36,1.06-9.94,1.95-5.53,6.58-11.36,12.22-15.89,11.08-9.36,26.23-13.23,29.83-12.14-1.11-.02-9.98,2-11.92,3.77,1.54-.45,3.09-.81,4.63-1.13-2.26.95-4.49,1.99-6.6,3.21-.84.3-1.67.64-2.5.98,2.35-.83,6.8-2.15,9.24-2.39-1.96.65-5.68,2.27-11.68,6.83.03.03-2.8,1.26-7.09,4.81-3.79,3.44-11.04,9.93-9.98,19.76.7,4.69,4.85,9.22,10.44,11.46,5.07,2.02,11.69,4.62,22.48,1.74,2.15-.7,3.97-1.35,5.13-1.93,5.69-1.71,11.19-5.97,16.35-9.71,3.92-2.86,7.42-9.7,9.1-10.98,1.19-1.07,1.95-.88,2.8-.34-3.02,6.47-8.75,12.5-15.08,17.02-7.37,5.17-22.23,12.15-28.03,9.69-.02,0-.18.2-.19.21,6.01,3.03,20.87-4.43,28.22-9.9,6.45-4.39,12.31-10.13,15.73-16.56.69.52,1.36,1.08,2.31.92.01,0,.91-2.24,1.19-3.39,2.73-4.3,5.42-4.03,7.12-.23.26.87.55,1.91.67,3-.3.76-.64,1.49-1.01,2.16-6.78,12.1-15.86,20.9-29.4,27.22-4.02,1.56-8.48,3.13-13.48,3.64.79.07,1.52.14,2.18.22,5.88-.92,11.03-3.18,15.73-5.74,10.66-6.29,19.73-13.7,26.14-24.91ZM17.06,51.8h.05c.03,2.28,1.7,8.71,6.68,14.02,4.14,5.16,12.92,10.16,20.42,11.62,12.87,2.55,22.82.39,26.09-.32.85-.18,1.14-.24,1.2-.19,9.16-1.65,24.96-9.54,32.67-15.69,7.5-6.14,10.48-16,10.57-16.07.02.02-5.19,10.14-10.7,14.73-9.36,7.13-23.35,15.43-32.55,17.07-.05-.03-.55.07-1.17.21-3.27.71-13.23,2.87-26.12.32-7.51-1.47-16.3-6.47-20.45-11.64-4.99-5.32-6.66-11.76-6.69-14.05ZM16.99,51.81v-.07h.07s.06,0,.06,0h.07s0,.07,0,.07c.03,2.27,1.7,8.67,6.67,13.98,4.13,5.15,12.89,10.14,20.37,11.6,12.86,2.54,22.8.39,26.07-.32.97-.21,1.17-.25,1.26-.18h-.05c4.25-.78,10.4-3.02,16.86-6.16,6.25-3.04,12-6.52,15.78-9.53,4.34-3.55,8.04-9.13,10.43-15.73.12-.32.12-.32.14-.34l.05-.04.04.05s.03.04-.22.52c-.13.25-.35.67-.66,1.22-.52.93-1.35,2.37-2.39,3.99-1.81,2.83-4.57,6.71-7.44,9.1-5.03,3.83-10.83,7.6-16.34,10.6-6.4,3.49-12.02,5.73-16.24,6.48h-.03s-.02,0-.02,0c0,0,.01,0,.01,0-.08-.02-.61.1-1.13.21-3.28.71-13.24,2.88-26.15.32-7.52-1.47-16.33-6.48-20.49-11.66-5-5.33-6.68-11.79-6.71-14.09ZM17.12,51.8c.03,2.28,1.7,8.7,6.68,14.01,4.14,5.16,12.91,10.15,20.41,11.61,12.88,2.55,22.83.39,26.1-.32.92-.2,1.15-.24,1.22-.2h-.05c4.21-.76,9.81-2.99,16.2-6.47,5.5-3,11.3-6.76,16.33-10.59,5.49-4.57,10.65-14.61,10.68-14.7v.06s.1.01.1.01l.02-.02s-.05.14-.11.29c-2.4,6.62-6.11,12.22-10.47,15.79-3.79,3.02-9.55,6.5-15.8,9.55-6.56,3.2-12.57,5.38-16.89,6.16h-.03s-.02-.02-.02-.02c0,0,0,0,0,0-.07-.03-.52.07-1.15.21-3.27.71-13.23,2.87-26.12.32-7.51-1.47-16.31-6.47-20.45-11.64-5-5.33-6.67-11.77-6.7-14.06l.07.07h-.06s.06-.07.06-.07ZM36.43,24.34c-5.28,4.86-9.29,10.49-11.01,15.46-1.1,2.84-1.6,5.82-1.46,8.87v.27s.04.03.04.03c.03-.01.03-.02.01-.3-.14-3.04.36-6.02,1.45-8.85,1.72-4.96,5.73-10.59,11-15.44,9.69-9.15,24.12-15.13,30.39-15.76-6.29.58-20.74,6.56-30.43,15.72ZM66.86,8.55v.13c-6.25.63-20.66,6.59-30.34,15.74-5.27,4.85-9.27,10.46-10.98,15.42-1.1,2.83-1.58,5.8-1.45,8.83.01.31.01.34-.06.37l-.04.02-.03-.03-.04-.03-.02-.02v-.03s0-.27,0-.26c-.14-3.05.35-6.05,1.46-8.89,1.72-4.98,5.74-10.62,11.03-15.49,9.76-9.23,24.21-15.16,30.47-15.74ZM66.87,8.69c-6.24.58-20.65,6.5-30.39,15.7-5.27,4.85-9.28,10.48-10.99,15.44-1.1,2.83-1.59,5.81-1.45,8.85v.26s-.02-.05-.02-.05l.04.03h-.07s-.02,0-.02.01c0-.02,0-.14,0-.26-.14-3.05.35-6.03,1.46-8.88,1.72-4.97,5.74-10.61,11.02-15.47,9.7-9.17,24.15-15.15,30.43-15.78v.13ZM38.77,37.58c-3.47,4.55-4.79,9.97-3.36,13.81.73,1.99,1.93,3.83,3.56,5.47l.16.17h.05s0-.03-.17-.21c-1.62-1.64-2.81-3.47-3.54-5.45-1.43-3.83-.11-9.23,3.35-13.76,7.13-9.83,20.09-15.53,21.66-15.76-1.58.18-14.56,5.89-21.7,15.73ZM51.67,26.03c4.29-2.65,7.95-4.15,8.79-4.25l.02.13c-1.57.23-14.49,5.92-21.61,15.73-3.45,4.52-4.76,9.89-3.34,13.7.72,1.97,1.91,3.79,3.53,5.43.2.2.22.22.19.29l-.02.04h-.05s-.05,0-.05,0h-.02s-.02-.02-.02-.02c0,0-.16-.17-.16-.17-1.63-1.65-2.83-3.5-3.57-5.49-1.44-3.86-.11-9.31,3.37-13.87,3.8-5.24,9.14-9.15,12.95-11.51ZM60.48,21.91c-1.35.16-14.42,5.73-21.65,15.71-3.46,4.53-4.77,9.92-3.35,13.74.73,1.98,1.92,3.81,3.54,5.44l.16.17-.04-.02h.05s-.07.04-.07.04c0,.01,0,.03,0,.03,0-.02-.08-.08-.16-.17-1.63-1.65-2.83-3.49-3.56-5.47-1.44-3.85-.12-9.28,3.36-13.83,7.14-9.85,20.13-15.55,21.7-15.79l.02.13Z"/>
  <path fill="#000" d="M184.4,10.37c-3.52,0-6.38,2.86-6.38,6.38s2.86,6.38,6.38,6.38,6.38-2.86,6.38-6.38-2.86-6.38-6.38-6.38ZM155.01,60.61c-5.23,0-9.38-1.67-12.66-5.11-3.26-3.41-4.91-7.93-4.91-13.46,0-5.83,1.62-10.63,4.8-14.27,3.19-3.66,7.33-5.43,12.65-5.43,5.75,0,9.99.77,12.59,2.3l.99.58.5-1.03,2.91-5.99.47-.96-.96-.46c-4.05-1.95-9.69-2.94-16.75-2.94-8.35,0-15.27,2.66-20.57,7.9-5.29,5.24-7.98,11.91-7.98,19.81s2.52,14.84,7.5,19.85c4.98,5.01,11.86,7.55,20.46,7.55s14.97-2.1,20.19-6.25l.88-.7-.75-.84-4.79-5.33-.77-.86-.79.84c-3,3.2-7.38,4.82-13.02,4.82ZM179.72,68.77h9.39V29.25h-10.46v39.52h1.06ZM233.88,63.36c-2.08-.93-3.09-2.77-3.09-5.62v-13.4c0-5.69-1.68-9.93-5-12.59-3.25-2.6-8.44-3.92-15.43-3.92-2.61,0-5.38.38-8.23,1.13-2.87.75-5.17,1.68-6.83,2.76l-.87.57.54.88,3.48,5.67.63,1.03.94-.76c2.58-2.08,6.37-3.13,11.26-3.13,5.62,0,8.5,2.12,8.96,6.61-1.74-.38-3.35-.59-4.79-.59-6.6,0-12.12,1.38-16.42,4.09-4.45,2.81-6.71,6.34-6.71,10.49,0,3.5,1.49,6.45,4.44,8.77,2.87,2.26,6.3,3.41,10.19,3.41,6.41,0,11.42-1.45,14.91-4.32.84,1.36,2.01,2.39,3.5,3.07,1.85.84,4.49,1.25,8.08,1.25h1.06v-5.12l-.63-.28ZM220.69,57.31c-2.96,2.81-6.25,4.19-10.04,4.19-6.73,0-7.51-2.73-7.51-4.79s1.14-3.7,3.48-5.22c2.45-1.59,5.7-2.4,9.65-2.4.85,0,2.33.18,4.42.54v7.68ZM246.1,55.37V13.12h-10.45v43.29c0,8.2,5.79,12.35,17.19,12.35h1.06v-7.97h-1.06c-2.06,0-3.74-.51-4.97-1.51-1.19-.96-1.76-2.24-1.76-3.91ZM301.57,49.91c-1.76-1.81-4.56-3.41-8.33-4.77,0,0-5.92-2.18-5.92-2.18-2.97-1.07-4.41-2.53-4.41-4.46,0-.46.16-1.16,1.48-1.88,1.19-.65,2.7-.98,4.49-.98,3.1,0,6.26.96,9.37,2.86l1.09.66.46-1.19,2.36-6.12.4-1.04-1.06-.35c-5.27-1.74-9.71-2.62-13.2-2.62-4.68,0-8.55.92-11.51,2.75-3.11,1.92-4.69,4.66-4.69,8.14,0,1.35.27,2.63.82,3.8.54,1.16,1.35,2.26,2.41,3.26,1.03.98,2.26,1.87,3.66,2.64,1.38.76,3.95,1.83,7.84,3.26,3.07,1.08,6.71,2.89,6.71,5.33,0,1.77-.69,4.13-6.62,4.13-2.64,0-6.23-1.21-10.68-3.59l-.99-.53-.48,1.02-2.93,6.29-.45.98.98.44c4.45,2,9.26,3.02,14.3,3.02,5.39,0,9.69-1.01,12.78-3,3.25-2.09,4.89-5.03,4.89-8.74,0-2.83-.94-5.22-2.79-7.12ZM259.17,68.77h9.39V29.25h-10.46v38.46s0,1.06,0,1.06h1.06ZM263.84,10.37c-3.52,0-6.38,2.86-6.38,6.38s2.86,6.38,6.38,6.38,6.38-2.86,6.38-6.38-2.86-6.38-6.38-6.38ZM306.4,14.14c.74-1.63,1.74-3.02,3-4.16,1.26-1.14,2.7-2.03,4.35-2.65,1.64-.63,3.36-.94,5.16-.94s3.52.31,5.17.94c1.64.63,3.09,1.51,4.34,2.65,1.26,1.15,2.26,2.53,3,4.16.75,1.63,1.12,3.45,1.12,5.46s-.37,3.86-1.12,5.49c-.75,1.63-1.75,3.02-3,4.18-1.25,1.16-2.7,2.04-4.34,2.66-1.65.61-3.37.92-5.17.92s-3.52-.31-5.16-.92c-1.65-.62-3.09-1.5-4.35-2.66-1.25-1.16-2.26-2.55-3-4.18-.75-1.63-1.12-3.46-1.12-5.49s.37-3.83,1.12-5.46ZM309.69,23.75c.52,1.27,1.23,2.38,2.13,3.31.9.93,1.96,1.66,3.17,2.17,1.22.52,2.53.78,3.92.78s2.67-.26,3.88-.78c1.22-.52,2.27-1.24,3.18-2.17.9-.93,1.61-2.04,2.14-3.31.53-1.27.8-2.67.8-4.17s-.27-2.9-.8-4.16c-.53-1.26-1.25-2.35-2.14-3.27-.9-.92-1.96-1.64-3.18-2.16-1.22-.52-2.51-.77-3.88-.77s-2.7.26-3.92.77c-1.22.52-2.27,1.24-3.17,2.16-.9.92-1.61,2.01-2.13,3.27-.52,1.26-.78,2.65-.78,4.16s.26,2.9.78,4.17ZM319.2,12.17c1.88,0,3.32.33,4.32.99,1.01.66,1.52,1.8,1.52,3.4,0,.69-.11,1.27-.31,1.76-.19.48-.47.88-.83,1.19-.35.31-.76.55-1.24.71-.47.17-.98.27-1.52.32l3.98,6.47h-3.1l-3.63-6.34h-1.85v6.34h-2.95v-14.84h5.61ZM319.16,18.39c.85,0,1.55-.12,2.1-.36.54-.24.81-.81.81-1.72,0-.41-.09-.73-.28-.97s-.43-.42-.73-.55c-.3-.13-.63-.22-1-.27-.36-.05-.72-.07-1.05-.07h-2.48v3.94h2.63Z"/>

</svg>