<?xml version="1.0" encoding="UTF-8"?>
<svg id="uuid-791be7e2-5497-417e-bbe0-44dec1f5732f" data-name="图层 2" xmlns="http://www.w3.org/2000/svg" xmlns:xlink="http://www.w3.org/1999/xlink" viewBox="0 0 600.25 97.8">
  <defs>
    <style>
      .uuid-893eb317-1dae-4ee7-a58a-bdfd6d62d950 {
        stroke: #034ea2;
        stroke-width: .5px;
      }

      .uuid-893eb317-1dae-4ee7-a58a-bdfd6d62d950, .uuid-ecd1d5a8-5d44-4033-9dca-ce9307e38459 {
        fill: #034ea2;
      }

      .uuid-ecd1d5a8-5d44-4033-9dca-ce9307e38459, .uuid-ecd35ab1-dca1-4402-aad7-edb1531d7c63, .uuid-1e9d6616-e826-4b2a-b1f6-54939b4a5c94, .uuid-c6e635dd-f2a6-4c33-9baf-0093822e362c, .uuid-fda95922-c39a-4781-ad6a-e3c66310ba8d, .uuid-edd704de-359d-4149-bc7e-b04fd805f397 {
        stroke-width: 0px;
      }

      .uuid-c667646e-0387-48cd-b8f5-4f9c96d03c65 {
        fill: #636466;
        stroke: #636466;
        stroke-width: .3px;
      }

      .uuid-ecd35ab1-dca1-4402-aad7-edb1531d7c63 {
        fill: url(#uuid-c4c99f3d-094b-43b9-b35d-9686c73f18d3);
      }

      .uuid-1e9d6616-e826-4b2a-b1f6-54939b4a5c94 {
        fill: url(#uuid-ee8870a3-4e44-4045-8881-2b09ba233c80);
      }

      .uuid-c6e635dd-f2a6-4c33-9baf-0093822e362c {
        fill: url(#uuid-5bf81deb-7402-4541-9111-7b3fa0d6de03);
      }

      .uuid-fda95922-c39a-4781-ad6a-e3c66310ba8d {
        fill: url(#uuid-a6836818-5563-49fd-8ae2-ef7ad75ebce1);
      }

      .uuid-edd704de-359d-4149-bc7e-b04fd805f397 {
        fill: #fff;
      }
    </style>
    <linearGradient id="uuid-a6836818-5563-49fd-8ae2-ef7ad75ebce1" data-name="未命名的渐变" x1="-363.69" y1="-16.2" x2="-362.35" y2="-16.2" gradientTransform="translate(17473 542.4) scale(48 30)" gradientUnits="userSpaceOnUse">
      <stop offset="0" stop-color="#fff"/>
      <stop offset=".28" stop-color="#fff"/>
      <stop offset="1" stop-color="#464747"/>
    </linearGradient>
    <linearGradient id="uuid-c4c99f3d-094b-43b9-b35d-9686c73f18d3" data-name="未命名的渐变 2" x1="-355.01" y1="-5.85" x2="-353.67" y2="-5.85" gradientTransform="translate(7829 137.6) scale(22 17)" gradientUnits="userSpaceOnUse">
      <stop offset="0" stop-color="#464747"/>
      <stop offset=".04" stop-color="#464747"/>
      <stop offset=".96" stop-color="#b3b0af"/>
      <stop offset="1" stop-color="#b3b0af"/>
    </linearGradient>
    <linearGradient id="uuid-5bf81deb-7402-4541-9111-7b3fa0d6de03" data-name="未命名的渐变 3" x1="-354.67" y1="-5.85" x2="-353.33" y2="-5.85" gradientTransform="translate(7851 137.6) scale(22 17)" gradientUnits="userSpaceOnUse">
      <stop offset="0" stop-color="#c8c5c4"/>
      <stop offset=".33" stop-color="#c8c5c4"/>
      <stop offset=".78" stop-color="#fff"/>
      <stop offset="1" stop-color="#fff"/>
    </linearGradient>
    <radialGradient id="uuid-ee8870a3-4e44-4045-8881-2b09ba233c80" data-name="未命名的渐变 4" cx="-349" cy="-6.29" fx="-349" fy="-6.29" r="1.09" gradientTransform="translate(5988 137.6) scale(17)" gradientUnits="userSpaceOnUse">
      <stop offset="0" stop-color="#464747"/>
      <stop offset=".01" stop-color="#464747"/>
      <stop offset="1" stop-color="#fff"/>
    </radialGradient>
  </defs>
  <g id="uuid-12cbf8a3-6c73-4931-9085-9dac840dc978" data-name="layer">
    <path id="uuid-c497ce77-46e1-484e-affa-b3bb67106a91" data-name="path-1" class="uuid-edd704de-359d-4149-bc7e-b04fd805f397" d="M35.8,68.7c0,8.3,18.2,14.9,40.7,14.9,2.6,0,5.1-.2,7.5-.3,4.9-4.9,8.8-10.9,11.2-17.5,0-.2.2-.3.2-.5v-.2q0-.2.2-.3v-.2q0-.2.2-.3v-.2q0-.2.2-.3c0-.2.2-.3.2-.5v-.2c0-.2,0-.3.2-.3v-.2c0-.2,0-.3.2-.5.5-2.1.9-4.2,1.2-6.3-6.1-1.3-13.3-2.1-20.9-2.1-22.9,0-41.1,6.7-41.1,15"/>
    <path id="uuid-ad4dc4f5-4a78-4a26-9907-759cb12664c2" data-name="SMH" class="uuid-c667646e-0387-48cd-b8f5-4f9c96d03c65" d="M115.1,81c1,0,1.9-.2,2.7-.8,1.3-.8,1.4-2.2,1.4-2.9,0-1.4-.5-2.6-2.6-4.1l-.5-.3c-1.6-1.4-2.1-1.9-2.1-3,0-1.3,1-2.1,2.2-2.1,1.6,0,2.1.8,2.2,1,.2.2.2.6.2,1q0,.2.2.2c.2,0,.2-.2.2-.5v-1.9q0-.2-.2-.2c-.2,0-.3,0-.6-.2-.5-.2-1-.2-1.6-.2-2.2,0-3.7,1.3-3.7,3.2,0,1.3.5,2.2,2.2,3.8l.8.6c1.6,1.3,2.1,1.9,2.1,3.2,0,1.1-.8,2.4-2.6,2.4-1.1,0-2.4-.5-2.6-1.8v-.6q0-.2-.2-.2c-.2,0-.2.2-.2.3,0,.3-.2,1-.2,1.9q0,.5.3.6c1,.6,1.8.6,2.6.6ZM130.4,81c1.1,0,2.4-.2,3.2-.5q.3-.2.5-.5c.2-.6.3-2.1.3-2.2,0-.2,0-.3-.2-.3s-.2,0-.2.3-.3,1.1-.6,1.4c-.6.8-1.8,1-3,1-3.8,0-6.4-3-6.4-6.4,0-1.8.3-3.3,1.6-4.6.6-.6,1.8-1.3,4-1.3,1.6,0,2.9.5,3.5,1,.5.3.8,1.1.8,1.8q0,.3.2.3c.2,0,.2-.2.2-.3v-1.8c0-.6.2-.8.2-1s0-.2-.2-.2c-.6,0-1.1-.2-1.8-.3-.8-.2-1.9-.2-2.6-.2-2.7,0-4.3.8-5.4,1.9-1.6,1.6-1.9,3.7-1.9,4.8,0,1.6.5,3.7,2.1,5.3,1.2,1.2,2.9,1.8,5.7,1.8ZM140.4,72.6v-3.8c0-.6.2-1,.6-1h.5l.2-.2c0-.2-.2-.2-.3-.2h-3.5c-.2,0-.3,0-.3.2l.2.2h.5c.3.2.6.3.6,1v6.9c0,1.8,0,3-.2,3.8,0,.5-.2,1-.5,1h-.5q-.2,0-.2.2c0,.2.2.2.3.2h4c.2,0,.3,0,.3-.2,0,0,0-.2-.2-.2h-.8c-.5,0-.6-.5-.6-1-.2-.8-.2-2.1-.2-3.8v-3.1h.1ZM145.8,75.5c0,1.8,0,3-.2,3.8,0,.5-.2,1-.5,1h-.5q-.2,0-.2.2c0,.2.2.2.3.2h1.6c.5,0,1.8.2,4.3.2.6,0,.8,0,1-.5.2-.3.2-1.6.2-1.8s0-.3-.2-.3-.2,0-.2.3c-.2.8-.3,1.1-.8,1.3-.5.2-1.3.2-1.8.2-1.8,0-1.9-.2-2.1-1.4v-4.6s0-.2.2-.2c.3,0,2.1,0,2.6.2.6,0,.8.3,1,.6v.6q0,.2.2.2c.2,0,.2-.2.2-.3v-1.1c0-.6.2-1,.2-1q0-.2-.2-.2s-.2.2-.3.2c-.2.2-.5.2-.8.3h-2.9q-.2,0-.2-.2v-4.9q0-.2.2-.2h2.4c1,.2,1.1.3,1.3.6.2.2.2.5.2.6q0,.2.2.2l.2-.2c0-.2,0-1,.2-1.1,0-.5.2-.6.2-.8v-.2q-.2,0-.3.2c-.2,0-.5,0-.8.2h-5.9c-.2,0-.3,0-.3.2l.2.2h.6c.6.2.8.5.8,1v3.8l-.1,2.7ZM157.1,70c.6.6,2.6,2.9,4.6,5.1,1.9,2.1,4.5,4.6,4.6,4.8,1,1,1.1,1.1,1.3,1.1s.2-.2.2-1.3v-10.3c0-1.1,0-1.4.6-1.6h.5q.2,0,.2-.2c0-.2-.2-.2-.3-.2h-3.2c-.2,0-.3,0-.3.2,0,0,0,.2.2.2s.5,0,.8.2c.5.2.6.5.6,1.8l.2,8.9c-.6-.6-2.6-2.7-4.3-4.6-2.7-2.9-5.3-5.7-5.6-6.1-.2-.2-.5-.6-.6-.6-.2,0-.2.2-.2,1v10c0,1.6-.2,2.1-.5,2.2-.3.2-.6.2-.8.2s-.2,0-.2.2.2.2.3.2h3.7c.2,0,.3,0,.3-.2,0,0,0-.2-.2-.2s-.5,0-1-.2-.6-.6-.6-2.1l-.3-8.5ZM178.5,81c1.1,0,2.4-.2,3.2-.5q.3-.2.5-.5c.2-.6.3-2.1.3-2.2,0-.2,0-.3-.2-.3s-.2,0-.2.3-.3,1.1-.6,1.4c-.6.8-1.8,1-3,1-3.8,0-6.4-3-6.4-6.4,0-1.8.3-3.3,1.6-4.6.6-.6,1.8-1.3,4-1.3,1.6,0,2.9.5,3.5,1,.5.3.8,1.1.8,1.8q0,.3.2.3c.2,0,.2-.2.2-.3v-1.8c0-.6.2-.8.2-1s0-.2-.2-.2c-.6,0-1.1-.2-1.8-.3-.8-.2-1.9-.2-2.6-.2-2.7,0-4.3.8-5.4,1.9-1.6,1.6-1.9,3.7-1.9,4.8,0,1.6.5,3.7,2.1,5.3,1.3,1.2,3,1.8,5.7,1.8ZM185.8,75.5c0,1.8,0,3-.2,3.8,0,.5-.2,1-.5,1h-.5q-.2,0-.2.2c0,.2.2.2.3.2h1.6c.5,0,1.8.2,4.3.2.6,0,.8,0,1-.5.2-.3.2-1.6.2-1.8s0-.3-.2-.3-.2,0-.2.3c-.2.8-.3,1.1-.8,1.3-.5.2-1.3.2-1.8.2-1.8,0-1.9-.2-2.1-1.4v-4.6s0-.2.2-.2c.3,0,2.1,0,2.6.2.6,0,.8.3,1,.6v.6q0,.2.2.2c.2,0,.2-.2.2-.3v-1.1c0-.6.2-1,.2-1,0,0,0-.2-.2-.2,0,0-.2.2-.3.2-.2.2-.5.2-.8.3h-2.9q-.2,0-.2-.2v-4.9q0-.2.2-.2h2.4c1,.2,1.1.3,1.3.6.2.2.2.5.2.6q0,.2.2.2l.2-.2c0-.2,0-1,.2-1.1,0-.5.2-.6.2-.8v-.2q-.2,0-.3.2c-.2,0-.5,0-.8.2h-5.9c-.2,0-.3,0-.3.2l.2.2h.6c.6.2.8.5.8,1v3.8l-.1,2.7ZM221,67.8c0-.3-.2-.5-.2-.5-.2,0-.2.2-.3.3l-5.1,11-5.4-11.2c-.2-.2-.2-.3-.3-.3-.2,0-.2.2-.2.3l-1.3,11.5c0,.6-.2,1.4-.6,1.4h-.5q-.2,0-.2.2c0,.2.2.2.3.2h3c.2,0,.3,0,.3-.2l-.2-.2c-.2,0-.3,0-.6-.2-.3,0-.5-.3-.5-.5v-1l.6-8.1c.2.5,2.2,4.8,2.4,5.1.2.2,1.6,3.2,2.1,4.1.3.6.5.8.5.8.2,0,.2-.2.6-1l4.3-9.1.8,9.1v.6q-.2,0-.2.2c0,.2.2.2.5.2.6,0,2.6.2,2.9.2.2,0,.3,0,.3-.2,0,0,0-.2-.2-.2s-.6,0-1.1-.2c-.8-.3-1-1.3-1-1.9l-.7-10.4ZM227.9,75.5c0,1.8,0,3-.2,3.8,0,.5-.2,1-.5,1h-.5q-.2,0-.2.2c0,.2.2.2.3.2h1.6c.5,0,1.8.2,4.3.2.6,0,.8,0,1-.5.2-.3.2-1.6.2-1.8s0-.3-.2-.3-.2,0-.2.3c-.2.8-.3,1.1-.8,1.3s-1.3.2-1.8.2c-1.8,0-1.9-.2-2.1-1.4v-4.6s0-.2.2-.2c.3,0,2.1,0,2.6.2.6,0,.8.3,1,.6v.6q0,.2.2.2c.2,0,.2-.2.2-.3v-1.1c0-.6.2-1,.2-1,0,0,0-.2-.2-.2,0,0-.2.2-.3.2-.2.2-.5.2-.8.3h-2.9q-.2,0-.2-.2v-4.9q0-.2.2-.2h2.4c1,.2,1.1.3,1.3.6.2.2.2.5.2.6q0,.2.2.2l.2-.2c0-.2,0-1,.2-1.1,0-.5.2-.6.2-.8v-.2q-.2,0-.3.2c-.2,0-.5,0-.8.2h-5.9c-.2,0-.3,0-.3.2l.2.2h.6c.6.2.8.5.8,1v3.8l-.1,2.7ZM237.7,75.7c0,1.8,0,3-.2,3.8,0,.5-.2,1-.5,1h-.5q-.2,0-.2.2c0,.2.2.2.3.2h1.8c.2,0,2.4.2,4,.2,3,0,4.6-1.3,5.3-2.1,1-1.1,1.9-2.7,1.9-4.9s-.8-3.5-1.8-4.5c-2.1-2.2-5.3-2.1-7-2.1h-4.3c-.2,0-.3,0-.3.2l.2.2h.6c.6.2.8.5.8,1v3.8l-.1,3ZM239.2,72.4v-3.8c0-.2,0-.3.2-.3s.8-.2,1.1-.2c2.1,0,4.1.3,5.7,1.9.8.8,1.8,2.2,1.8,4.5,0,1.6-.5,3.3-1.4,4.1-1.1,1.1-2.6,1.6-4.1,1.6-2.1,0-2.7-.3-3-.6-.2-.2-.2-1-.2-1.3v-5.9h-.1ZM254.2,72.6v-3.8c0-.6.2-1,.6-1h.5l.2-.2c0-.2-.2-.2-.3-.2h-3.5c-.2,0-.3,0-.3.2l.2.2h.5c.3.2.6.3.6,1v6.9c0,1.8,0,3-.2,3.8,0,.5-.2,1-.5,1h-.5q-.2,0-.2.2c0,.2.2.2.3.2h4c.2,0,.3,0,.3-.2,0,0,0-.2-.2-.2h-.7c-.5,0-.6-.5-.6-1-.2-.8-.2-2.1-.2-3.8v-3.1h0ZM266.5,81c1.1,0,2.4-.2,3.2-.5q.3-.2.5-.5c.2-.6.3-2.1.3-2.2,0-.2,0-.3-.2-.3s-.2,0-.2.3-.3,1.1-.6,1.4c-.6.8-1.8,1-3,1-3.8,0-6.4-3-6.4-6.4,0-1.8.3-3.3,1.6-4.6.6-.6,1.8-1.3,4-1.3,1.6,0,2.9.5,3.5,1,.5.3.8,1.1.8,1.8q0,.3.2.3c.2,0,.2-.2.2-.3v-1.8c0-.6.2-.8.2-1s0-.2-.2-.2c-.6,0-1.1-.2-1.8-.3-.8-.2-1.9-.2-2.6-.2-2.7,0-4.3.8-5.4,1.9-1.6,1.6-1.9,3.7-1.9,4.8,0,1.6.5,3.7,2.1,5.3,1.2,1.2,3.2,1.8,5.7,1.8ZM275.4,72.6v-3.8c0-.6.2-1,.6-1h.5l.2-.2c0-.2-.2-.2-.3-.2h-3.5c-.2,0-.3,0-.3.2l.2.2h.5c.3.2.6.3.6,1v6.9c0,1.8,0,3-.2,3.8,0,.5-.2,1-.5,1h-.5q-.2,0-.2.2c0,.2.2.2.3.2h4c.2,0,.3,0,.3-.2,0,0,0-.2-.2-.2h-.8c-.5,0-.6-.5-.6-1-.2-.8-.2-2.1-.2-3.8v-3.1h.1ZM280.9,70c.6.6,2.6,2.9,4.6,5.1,1.9,2.1,4.5,4.6,4.6,4.8,1,1,1.1,1.1,1.3,1.1s.2-.2.2-1.3v-10.3c0-1.1,0-1.4.6-1.6h.5q.2,0,.2-.2c0-.2-.2-.2-.3-.2h-3.2c-.2,0-.3,0-.3.2,0,0,0,.2.2.2s.5,0,.8.2c.5.2.6.5.6,1.8l.2,8.9c-.6-.6-2.6-2.7-4.3-4.6-2.7-2.9-5.4-5.7-5.6-6.1-.2-.2-.5-.6-.6-.6s-.2.2-.2,1v10c0,1.6-.2,2.1-.5,2.2-.3.2-.6.2-.8.2s-.2,0-.2.2.2.2.3.2h3.7c.2,0,.3,0,.3-.2,0,0,0-.2-.2-.2s-.5,0-1-.2-.6-.6-.6-2.1l-.3-8.5ZM296.3,75.5c0,1.8,0,3-.2,3.8,0,.5-.2,1-.5,1h-.5q-.2,0-.2.2c0,.2.2.2.3.2h1.6c.5,0,1.8.2,4.3.2.6,0,.8,0,1-.5.2-.3.2-1.6.2-1.8s0-.3-.2-.3-.2,0-.2.3c-.2.8-.3,1.1-.8,1.3s-1.3.2-1.8.2c-1.8,0-1.9-.2-2.1-1.4v-4.6s0-.2.2-.2c.3,0,2.1,0,2.6.2.6,0,.8.3,1,.6v.6q0,.2.2.2c.2,0,.2-.2.2-.3v-1.1c0-.6.2-1,.2-1q0-.2-.2-.2s-.2.2-.3.2c-.2.2-.5.2-.8.3h-2.9q-.2,0-.2-.2v-4.9q0-.2.2-.2h2.4c1,.2,1.1.3,1.3.6.2.2.2.5.2.6q0,.2.2.2l.2-.2c0-.2,0-1,.2-1.1,0-.5.2-.6.2-.8v-.2q-.2,0-.3.2c-.2,0-.5,0-.8.2h-5.9c-.2,0-.3,0-.3.2l.2.2h.6c.6.2.8.5.8,1v3.8l-.1,2.7ZM307.4,81c1,0,1.9-.2,2.7-.8,1.3-.8,1.4-2.2,1.4-2.9,0-1.4-.5-2.6-2.6-4.1l-.5-.3c-1.6-1.4-2.1-1.9-2.1-3,0-1.3,1-2.1,2.2-2.1,1.6,0,2.1.8,2.2,1,.2.2.2.6.2,1q0,.2.2.2c.2,0,.2-.2.2-.5v-1.9q0-.2-.2-.2c-.2,0-.3,0-.6-.2-.5-.2-1-.2-1.6-.2-2.2,0-3.7,1.3-3.7,3.2,0,1.3.5,2.2,2.2,3.8l.8.6c1.4,1.3,2.1,1.9,2.1,3.2,0,1.1-.8,2.4-2.6,2.4-1.1,0-2.4-.5-2.6-1.8v-.6q0-.2-.2-.2c-.2,0-.2.2-.2.3,0,.3-.2,1-.2,1.9q0,.5.3.6c.8.6,1.6.6,2.6.6ZM339.4,72.6v-3.8c0-.6.2-1,.6-1h.5l.2-.2c0-.2-.2-.2-.3-.2h-3.7c-.2,0-.3,0-.3.2l.2.2h.6c.6.2.8.5.8,1v4.1q0,.2-.2.2h-7.5s-.2,0-.2-.2v-4.1c0-.6.2-1,.6-1h.5l.2-.2c0-.2-.2-.2-.3-.2h-3.7c-.2,0-.3,0-.3.2l.2.2h.6c.6.2.8.5.8,1v6.9c0,1.8,0,3-.2,3.8,0,.5-.2,1-.5,1h-.5q-.2,0-.2.2c0,.2.2.2.3.2h4c.2,0,.3,0,.3-.2,0,0,0-.2-.2-.2h-.8c-.5,0-.6-.5-.6-1-.2-.8-.2-2.1-.2-3.8v-1.9q0-.2.2-.2h7.5l.2.2v1.9c0,1.8,0,3-.2,3.8,0,.5-.2,1-.5,1h-.3q-.2,0-.2.2c0,.2.2.2.3.2h4c.2,0,.3,0,.3-.2,0,0,0-.2-.2-.2h-.8c-.5,0-.6-.5-.6-1-.2-.8-.2-2.1-.2-3.8l-.2-3.1ZM344.6,75.7c0,1.8,0,3-.2,3.8,0,.5-.2,1-.5,1h-.5q-.2,0-.2.2c0,.2.2.2.3.2h1.6c.5,0,1.8.2,4.3.2.6,0,.8,0,1-.5.2-.3.2-1.6.2-1.8s0-.3-.2-.3-.2,0-.2.3c-.2.8-.3,1.1-.8,1.3s-1.3.2-1.8.2c-1.8,0-1.9-.2-2.1-1.4v-4.6s0-.2.2-.2c.3,0,2.1,0,2.6.2.6,0,.8.3,1,.6v.6q0,.2.2.2c.2,0,.2-.2.2-.3v-1.1c0-.6.2-1,.2-1,0,0,0-.2-.2-.2,0,0-.2.2-.3.2-.2.2-.5.2-.8.3h-2.9q-.2,0-.2-.2v-5q0-.2.2-.2h2.4c1,.2,1.1.3,1.3.6.2.2.2.5.2.6q0,.2.2.2l.2-.2c0-.2,0-1,.2-1.1,0-.5.2-.6.2-.8v-.2q-.2,0-.3.2c-.2,0-.5,0-.8.2h-5.9c-.2,0-.3,0-.3.2l.2.2h.6c.6.2.8.5.8,1v3.8l-.1,2.8ZM354.4,78.9c-.3,1-.6,1.6-1.4,1.6h-.5q-.2,0-.2.2c0,.2.2.2.3.2h3.3c.2,0,.3,0,.3-.2,0,0,0-.2-.2-.2h-.2c-.3,0-.6-.2-.6-.5s.2-.8.3-1.1l1.1-3.2c0-.2.2-.2.2-.2h3.8q.2,0,.2.2l1.6,4.3c.2.3,0,.5-.2.5l-.2.2c0,.2.2.2.5.2h2.7c.2,0,.3,0,.3-.2s0-.2-.2-.2-.5,0-.6-.2c-.3-.2-1-.3-1.6-1.9-1.1-2.7-3.8-9.9-4.1-10.7-.2-.5-.3-.6-.3-.6-.2,0-.2.2-.3.6l-4,11.2ZM356.7,75l1.4-4.9q.2-.3.3,0l1.8,4.8v.2h-3.5v-.1ZM370,72.6v-3.8c0-.6.2-1,.6-1h.6l.2-.2c0-.2-.2-.2-.3-.2h-3.8c-.2,0-.3,0-.3.2l.2.2h.6c.6.2.8.5.8,1v6.9c0,1.8,0,3-.2,3.8,0,.5-.2,1-.5,1h-.5q-.2,0-.2.2c0,.2.2.2.3.2h1.8c1,0,2.2.2,4.8.2q1,0,1.1-.5c.1-.5.3-1.6.3-1.8s0-.3-.2-.3-.2.2-.2.2c0,.3-.2.8-.5,1.1-.5.5-1.3.5-2.1.5-1.4,0-1.9-.2-2.1-.5-.3-.3-.3-1.4-.3-4l-.1-3.2ZM381.9,68.3h2.2c1.8,0,2.1.5,2.2,1v.2q0,.3.2.3s.2,0,.2-.2v-1.9q0-.2-.2-.2s-.2,0-.5.2c-.3,0-.6.2-1.3.2h-6.5c-.2,0-1,0-1.4-.2-.5,0-.6-.2-.8-.2,0,0-.2.2-.2.3,0,.2-.3,1.6-.3,1.8s0,.2.2.2c0,0,.2,0,.2-.2s.2-.3.3-.5c.3-.5.6-.5,1.8-.6h2.6v7.5c0,1.8,0,3-.2,3.8,0,.5-.2,1-.5,1h-.5q-.2,0-.2.2c0,.2.2.2.3.2h4c.2,0,.3,0,.3-.2,0,0,0-.2-.2-.2h-.8c-.5,0-.6-.5-.6-1-.2-.8-.2-2.1-.2-3.8l-.1-7.7ZM401.4,72.6v-3.8c0-.6.2-1,.6-1h.5l.2-.2c0-.2-.2-.2-.3-.2h-3.7c-.2,0-.3,0-.3.2l.2.2h.6c.6.2.8.5.8,1v4.1q0,.2-.2.2h-7.5s-.2,0-.2-.2v-4.1c0-.6.2-1,.6-1h.5l.2-.2c0-.2-.2-.2-.3-.2h-3.7c-.2,0-.3,0-.3.2l.2.2h.6c.6.2.8.5.8,1v6.9c0,1.8,0,3-.2,3.8,0,.5-.2,1-.5,1h-.5q-.2,0-.2.2c0,.2.2.2.3.2h4c.2,0,.3,0,.3-.2,0,0,0-.2-.2-.2h-.8c-.5,0-.6-.5-.6-1-.2-.8-.2-2.1-.2-3.8v-1.9q0-.2.2-.2h7.5l.2.2v1.9c0,1.8,0,3-.2,3.8,0,.5-.2,1-.5,1h-.3q-.2,0-.2.2c0,.2.2.2.3.2h4c.2,0,.3,0,.3-.2,0,0,0-.2-.2-.2h-.8c-.5,0-.6-.5-.6-1-.2-.8-.2-2.1-.2-3.8l-.2-3.1Z"/>
    <path id="uuid-25a55162-5cd2-49df-88c7-8d0ff26262c5" data-name="EMA" class="uuid-893eb317-1dae-4ee7-a58a-bdfd6d62d950" d="M115.1,46.8c0,3,0,5.4-.2,6.8-.2.8-.3,1.6-.8,1.6-.3,0-.7.2-1,.2-.2,0-.3.2-.3.2,0,.2.2.3.5.3,1,0,3-.2,3-.2,1.2.2,3.1.3,7.9.3,1.2,0,1.5,0,1.6-.8.2-.7.3-2.8.3-3s0-.5-.2-.5-.2.2-.3.5c-.2,1.3-.7,2-1.3,2.3-.8.3-2.1.3-3,.3-3,0-3.5-.3-3.6-2.5v-8.1q0-.2.2-.2c.5,0,3.6,0,4.5.2,1.2.2,1.5.7,1.6,1.2.2.3.2.7.2,1,0,.2,0,.3.2.3s.2-.3.2-.7c0-.2,0-1.3.2-2,.2-1,.3-1.5.3-1.8,0-.2,0-.3-.2-.3s-.3.2-.5.3c-.3.3-.7.3-1.5.5h-4.9c-.2,0-.2-.2-.2-.3v-8.6c0-.2,0-.3.2-.3.3,0,3.8,0,4.3.2,1.6.2,2,.5,2.1,1,.2.3.2.8.2,1.2q0,.3.3.3c.2,0,.2-.2.2-.3,0-.3.2-1.8.2-2,.2-.8.3-1.3.3-1.5s0-.3-.2-.3-.3.2-.5.2c-.3,0-.8.2-1.3.2h-7.1c-.2,0-2.1-.2-3.5-.2-.3,0-.5,0-.5.3,0,.2.2.2.3.2.3,0,.8,0,1,.2,1,.2,1.3.7,1.3,1.8v12ZM130.5,45.9c0,4.6,1.2,6.8,2.6,8.2,2.1,2.1,5.3,2.1,6.4,2.1,1.8,0,4.1-.3,6.4-2.3,2.5-2.1,2.8-5.9,2.8-9.2v-10.1c0-1.2.3-1.6,1.2-1.8.3-.2.5-.2.8-.2.2,0,.3,0,.3-.2s-.2-.3-.5-.3c-1,0-2.5.2-2.6.2s-1.8-.2-3.3-.2c-.3,0-.5,0-.5.3,0,.2.2.2.3.2.3,0,.8,0,1,.2,1,.2,1.3.7,1.3,1.8v10.7c0,3.1-.3,5.8-1.8,7.6-1.2,1.3-3,2.3-4.9,2.3-1.8,0-3.1-.3-4.6-1.6-1.3-1.3-2.3-3.1-2.3-7.7v-11.1c0-1.2.3-1.6,1.2-1.8.3,0,.5-.2.8-.2.2,0,.3,0,.3-.2s-.2-.3-.5-.3c-1,0-2.8.2-3.1.2s-2.1-.2-3.6-.2c-.3,0-.5,0-.5.3,0,.2.2.2.3.2.3,0,.8,0,1,.2,1,.2,1.3.7,1.3,1.8v6.8l.2,4.3ZM155,46.8c0,3,0,5.4-.2,6.8-.2.8-.3,1.6-.8,1.6-.3,0-.7.2-1,.2-.2,0-.3.2-.3.2,0,.2.2.3.5.3,1,0,3-.2,3-.2.2,0,2.1.2,3.8.2.3,0,.5-.2.5-.3s0-.2-.3-.2-1,0-1.3-.2c-1-.2-1.2-.8-1.2-1.6-.2-1.3-.2-3.8-.2-6.8v-.7c0-.2,0-.3.2-.3h3.8c.2,0,.3,0,.3.2.7.8,2.1,3,3.5,4.6,1.8,2.3,2.8,3.8,4.1,4.6.8.5,1.6.7,3.3.7h2.1c.5,0,.8,0,.8-.3,0-.2-.2-.2-.3-.2s-.7,0-1.2-.2c-.8-.2-2.1-.5-3.8-2.3-1.8-2-4-4.6-6.4-7.9,2.8-2.6,3.8-4.9,3.8-7.3,0-2.1-1.3-3.6-2.1-4.3-1.6-1.2-3.8-1.3-5.6-1.3-1,0-3.3.2-3.6.2-.2,0-2.1-.2-3.5-.2-.3,0-.5,0-.5.3,0,.2.2.2.3.2.3,0,.8,0,1,.2,1,.2,1.3.7,1.3,1.8v12.2h0ZM157.5,33.9c0-.2.2-.3.3-.3.3-.2,1.2-.2,2.1-.2,3.3,0,5.4,2.3,5.4,6.3,0,2.3-.8,4-1.8,4.8-.7.5-1.6.7-2.3.7-1.3,0-2.8-.2-3.3-.5q-.2-.2-.2-.3l-.2-10.5ZM172.2,44.1c0,5.6,3.5,12.2,12,12.2,7.4,0,12.4-5.8,12.4-12.7,0-7.3-5.3-11.7-12.2-11.7-8.6,0-12.2,7.1-12.2,12.2ZM175.1,43.1c0-6.8,4-10.2,9.1-10.2s9.4,4,9.4,11.5c0,9.1-5.8,10.7-8.6,10.7-5.6.1-9.9-4.7-9.9-12ZM200,46.8c0,3,0,5.4-.2,6.8-.2.8-.3,1.6-.8,1.6-.3,0-.7.2-1,.2-.2,0-.3.2-.3.2,0,.2.2.3.5.3,1,0,3-.2,3-.2.2,0,2.1.2,3.8.2.3,0,.5-.2.5-.3s0-.2-.3-.2-1,0-1.3-.2c-1-.2-1.2-.8-1.2-1.6-.2-1.3-.2-3.8-.2-6.8v-12.7c0-.3,0-.5.3-.7s.8-.2,1.3-.2c.7,0,2.6-.2,4.3,1.5,1.6,1.6,1.8,3.8,1.8,4.8,0,2.8-2.3,5.1-5.4,5.1-.7,0-.8,0-.8.3,0,.2.2.2.3.2h.7c4.5,0,7.6-3,7.6-7.4,0-1.6-.8-3-1.5-3.6-.5-.5-1.8-1.8-5.8-1.8-1.5,0-3.3.2-4,.2-.3,0-2.1-.2-3.5-.2-.3,0-.5,0-.5.3,0,.2.2.2.3.2.3,0,.8,0,1,.2,1,.2,1.3.7,1.3,1.8v12h.1ZM216.5,46.8c0,3,0,5.4-.2,6.8-.2.8-.3,1.6-.8,1.6-.3,0-.7.2-1,.2-.2,0-.3.2-.3.2,0,.2.2.3.5.3h3.1c.8,0,3,.2,7.7.2,1.2,0,1.5,0,1.6-.8.2-.7.3-2.8.3-3s0-.5-.2-.5-.2.2-.3.5c-.2,1.3-.7,2-1.3,2.3-.8.3-2.1.3-3,.3-3,0-3.5-.3-3.6-2.5v-8.1q0-.2.2-.2c.5,0,3.6,0,4.5.2,1.2.2,1.5.7,1.6,1.2.2.3.2.7.2,1,0,.2,0,.3.2.3s.2-.3.2-.7c0-.2,0-1.3.2-2,.2-1,.3-1.5.3-1.8,0-.2,0-.3-.2-.3s-.3.2-.5.3c-.3.3-.7.3-1.5.5h-4.9c-.2,0-.2-.2-.2-.3v-8.6c0-.2,0-.3.2-.3.3,0,3.8,0,4.3.2,1.6.2,2,.5,2.1,1,.2.3.2.8.2,1.2q0,.3.3.3c.2,0,.2-.2.2-.3,0-.3.2-1.8.2-2,.2-.8.3-1.3.3-1.5s0-.3-.2-.3-.3.2-.5.2c-.3,0-.8.2-1.3.2h-7.1c-.2,0-2.1-.2-3.5-.2-.3,0-.5,0-.5.3,0,.2.2.2.3.2.3,0,.8,0,1,.2,1,.2,1.3.7,1.3,1.8v11.9h.1ZM232.5,52.4c-.5,1.5-1.2,2.8-2.6,3h-.8c-.2,0-.3,0-.3.2s.2.3.7.3c1.5,0,3.1-.2,3.5-.2.3,0,1.6.2,2.5.2.3,0,.5,0,.5-.3,0-.2-.2-.2-.3-.2h-.3c-.5,0-1.2-.3-1.2-.8s.2-1.3.5-2.1l1.8-5.4c0-.2.2-.3.3-.3h6.8q.2,0,.3.2l3,7.6c.2.5,0,.8-.2.8s-.2.2-.2.2c0,.2.3.2,1,.2h4.9c.3,0,.7,0,.7-.3,0-.2-.2-.2-.3-.2-.3,0-.8,0-1.3-.2-.7-.2-1.5-.7-2.6-3.5-1.8-4.8-6.8-17.5-7.3-18.8-.3-1-.5-1.2-.7-1.2s-.3.2-.7,1.2l-7.7,19.6ZM237,45.6q-.2,0-.2-.2l2.8-8.4c.2-.5.3-.5.5,0l3,8.4q0,.2-.2.2h-5.9ZM257.2,36.7c1,1.2,4.5,5.1,8.1,8.9,3.3,3.5,7.7,8.1,8.1,8.4,1.6,1.6,2,2,2.3,2,.2,0,.3-.2.3-2.1v-18.1c0-1.8.2-2.5,1.2-2.8.3-.2.7-.2.8-.2s.3-.2.3-.2c0-.2-.2-.2-.5-.2-1.3,0-2.3.2-2.6.2s-1.8-.2-3.3-.2c-.3,0-.7,0-.7.2s0,.2.3.2,1,0,1.5.2c1,.3,1.2,1,1.2,3l.3,15.8c-1-1-4.5-4.8-7.4-8.1-4.8-5.1-9.4-10.1-9.9-10.7-.3-.3-.8-1-1.2-1s-.3.3-.3,1.5v17.8c0,2.8-.2,3.8-1,4-.5.2-1,.2-1.3.2-.2,0-.3,0-.3.2s.2.3.5.3c1.3,0,2.6-.2,3-.2.3,0,1.5.2,3.3.2.3,0,.5,0,.5-.3,0-.2-.2-.2-.3-.2-.3,0-1,0-1.5-.2-.8-.3-1.2-1-1.2-3.6l-.2-15ZM314.8,32.8c0-.7-.2-.8-.3-.8s-.3.2-.5.5l-9.1,19.5-9.6-19.6c-.2-.3-.3-.5-.5-.5s-.3.2-.3.5l-2.3,20.4c-.2,1.2-.2,2.5-1.3,2.6-.5.2-.7.2-1,.2-.2,0-.3,0-.3.2s.2.3.5.3c.8,0,2.3-.2,2.6-.2s1.8.2,3,.2c.3,0,.5,0,.5-.3,0-.2-.2-.2-.3-.2s-.7,0-1.2-.2-.8-.5-.8-1v-1.6l1.3-14.3h.2c.3.8,3.8,8.2,4.1,8.9l3.6,7.3c.7,1.2.8,1.5,1,1.5.3,0,.3-.3,1-1.6l7.6-16.2h.2l1.5,16c0,.5,0,1.2-.2,1.2s-.2.2-.2.2c0,.2.2.3.8.3,1.2.2,4.5.2,5.1.2.3,0,.7-.2.7-.3s-.2-.2-.3-.2c-.3,0-1.2,0-2-.3-1.3-.5-1.5-2.1-1.6-3.3l-1.9-19.4ZM324.5,46.8c0,3,0,5.4-.2,6.8-.2.8-.3,1.6-.8,1.6-.3,0-.7.2-1,.2-.2,0-.3.2-.3.2,0,.2.2.3.5.3h3.1c.8,0,3,.2,7.7.2,1.2,0,1.5,0,1.6-.8.2-.7.3-2.8.3-3s0-.5-.2-.5-.2.2-.3.5c-.2,1.3-.7,2-1.3,2.3-.8.3-2.1.3-3,.3-3,0-3.5-.3-3.6-2.5v-8.1q0-.2.2-.2c.5,0,3.6,0,4.5.2,1.2.2,1.5.7,1.6,1.2.2.3.2.7.2,1,0,.2,0,.3.2.3s.2-.3.2-.7c0-.2,0-1.3.2-2,.2-1,.3-1.5.3-1.8,0-.2,0-.3-.2-.3s-.3.2-.5.3c-.3.3-.7.3-1.5.5h-4.9c-.2,0-.2-.2-.2-.3v-8.6c0-.2,0-.3.2-.3.3,0,3.8,0,4.3.2,1.6.2,2,.5,2.1,1,.2.3.2.8.2,1.2q0,.3.3.3c.2,0,.2-.2.2-.3,0-.3.2-1.8.2-2,.2-.8.3-1.3.3-1.5s0-.3-.2-.3-.3.2-.5.2c-.3,0-.8.2-1.3.2h-7.1c-.2,0-2.1-.2-3.5-.2-.3,0-.5,0-.5.3,0,.2.2.2.3.2.3,0,.8,0,1,.2,1,.2,1.3.7,1.3,1.8v11.9h.1ZM340,46.8c0,3,0,5.4-.2,6.8-.2.8-.3,1.6-.8,1.6-.3,0-.7.2-1,.2-.2,0-.3.2-.3.2,0,.2.2.3.5.3,1,0,3-.2,3-.2.3,0,4.3.3,6.9.3,5.3,0,8.1-2.1,9.4-3.6,1.8-1.8,3.3-4.8,3.3-8.7,0-3.6-1.5-6.3-3-7.9-3.6-3.8-9.4-3.5-12.5-3.5-1.8,0-3.8.2-4.1.2-.2,0-2.1-.2-3.5-.2-.3,0-.5,0-.5.3,0,.2.2.2.3.2.3,0,.8,0,1,.2,1,.2,1.3.7,1.3,1.8v12h.2ZM342.6,40.8v-6.6c0-.3.2-.5.3-.7.3-.2,1.3-.2,2-.2,3.6,0,7.3.5,10.2,3.5,1.3,1.3,3,4,3,7.7,0,2.8-.8,5.8-2.5,7.4-1.8,1.8-4.5,3-7.4,3-3.6,0-4.9-.7-5.3-1.3-.3-.3-.3-1.6-.3-2.3v-10.5h0ZM367.4,41.3v-6.8c0-1.2.3-1.6,1.2-1.8.3,0,.5-.2.8-.2.2,0,.3,0,.3-.2s-.2-.3-.5-.3c-1,0-3,.2-3,.2,0,0-2.1-.2-3.1-.2-.3,0-.5,0-.5.3,0,.2.2.2.3.2s.7,0,1,.2c.7.2,1,.7,1,1.8v12.2c0,3,0,5.4-.2,6.8-.2.8-.3,1.6-.8,1.6-.3,0-.7.2-1,.2-.2,0-.3.2-.3.2,0,.2.2.3.5.3,1,0,3-.2,3-.2,0,0,2.1.2,3.8.2.3,0,.5-.2.5-.3s0-.2-.3-.2-1,0-1.3-.2c-1-.2-1.2-.8-1.2-1.6-.2-1.3-.2-3.8-.2-6.8v-5.4h0ZM386,56.3c2,0,4.3-.2,5.6-.7.5-.3.7-.3.8-.8.3-1,.7-3.8.7-4,0-.3,0-.5-.2-.5s-.3.2-.3.5c-.2.5-.5,2-1.2,2.6-1.3,1.3-3.1,1.5-5.4,1.5-6.6,0-11.2-5.4-11.2-11.4,0-3.1.5-5.9,2.8-8.1,1.2-1,3-2.3,7.1-2.3,2.8,0,5.1.8,6.3,1.8.8.7,1.3,2,1.3,3.1,0,.5,0,.7.3.7.2,0,.3-.2.3-.7s0-2.1.2-3.1c0-1.2.2-1.5.2-1.8,0-.2,0-.3-.3-.3-1,0-2-.3-3.1-.5-1.5-.3-3.3-.3-4.5-.3-4.8,0-7.6,1.5-9.4,3.3-2.8,2.8-3.5,6.4-3.5,8.4,0,3,.8,6.4,3.8,9.2,1.8,2.3,4.9,3.4,9.7,3.4ZM400.4,41.3v-6.8c0-1.2.3-1.6,1.2-1.8.3,0,.5-.2.8-.2.2,0,.3,0,.3-.2s-.2-.3-.5-.3c-1,0-3,.2-3,.2-.2,0-2.1-.2-3.1-.2-.3,0-.5,0-.5.3,0,.2.2.2.2.2.2,0,.7,0,1,.2.7.2,1,.7,1,1.8v12.2c0,3,0,5.4-.2,6.8-.2.8-.3,1.6-.8,1.6-.3,0-.7.2-1,.2-.2,0-.3.2-.3.2,0,.2.2.3.5.3,1,0,3-.2,3-.2.2,0,2.1.2,3.8.2.3,0,.5-.2.5-.3s0-.2-.3-.2-1,0-1.3-.2c-1-.2-1.2-.8-1.2-1.6-.2-1.3-.2-3.8-.2-6.8l.1-5.4ZM409.3,36.7c1,1.2,4.5,5.1,8.1,8.9,3.3,3.5,7.7,8.1,8.1,8.4,1.6,1.6,2,2,2.3,2,.2,0,.3-.2.3-2.1v-18.1c0-1.8.2-2.5,1.2-2.8.3-.2.7-.2.8-.2.2,0,.3-.2.3-.2,0-.2-.2-.2-.5-.2-1.3,0-2.3.2-2.6.2s-1.8-.2-3.3-.2c-.3,0-.7,0-.7.2s0,.2.3.2,1,0,1.5.2c1,.3,1.2,1,1.2,3l.3,15.8c-1-1-4.5-4.8-7.4-8.1-4.8-5.1-9.4-10.1-9.9-10.7-.3-.3-.8-1-1.2-1s-.3.3-.3,1.5v17.8c0,2.8-.2,3.8-1,4-.5.2-1,.2-1.3.2-.2,0-.3,0-.3.2s.2.3.5.3c1.3,0,2.6-.2,3-.2s1.5.2,3.3.2c.3,0,.5,0,.5-.3,0-.2-.2-.2-.3-.2-.3,0-1,0-1.5-.2-.8-.3-1.2-1-1.2-3.6l-.2-15ZM434.6,46.8c0,3,0,5.4-.2,6.8-.2.8-.3,1.6-.8,1.6-.3,0-.7.2-1,.2-.2,0-.3.2-.3.2,0,.2.2.3.5.3h3.1c.8,0,3,.2,7.7.2,1.2,0,1.5,0,1.6-.8.2-.7.3-2.8.3-3s0-.5-.2-.5-.2.2-.3.5c-.2,1.3-.7,2-1.3,2.3-.8.3-2.1.3-3,.3-3,0-3.5-.3-3.6-2.5v-8.1q0-.2.2-.2c.5,0,3.6,0,4.5.2,1.2.2,1.5.7,1.6,1.2.2.3.2.7.2,1,0,.2,0,.3.2.3s.2-.3.2-.7c0-.2,0-1.3.2-2,.2-1,.3-1.5.3-1.8,0-.2,0-.3-.2-.3s-.3.2-.5.3c-.3.3-.7.3-1.5.5h-4.9c-.2,0-.2-.2-.2-.3v-8.6c0-.2,0-.3.2-.3.3,0,3.8,0,4.3.2,1.6.2,2,.5,2.1,1,.2.3.2.8.2,1.2q0,.3.3.3c.2,0,.2-.2.2-.3,0-.3.2-1.8.2-2,.2-.8.3-1.3.3-1.5s0-.3-.2-.3-.3.2-.5.2c-.3,0-.8.2-1.3.2h-7c-.2,0-2.1-.2-3.5-.2-.3,0-.5,0-.5.3,0,.2.2.2.3.2.3,0,.8,0,1,.2,1,.2,1.3.7,1.3,1.8v11.9h0ZM453.3,56.3c1.6,0,3.3-.3,4.6-1.3,2.1-1.5,2.6-4,2.6-5.1,0-2.5-.8-4.5-4.6-7.3l-.8-.7c-3-2.5-3.8-3.5-3.8-5.3,0-2.3,1.6-3.6,3.8-3.6,2.8,0,3.6,1.3,4,1.6.2.3.3,1.2.3,1.5s0,.3.3.3c.2,0,.2-.2.2-.7,0-2.1.2-3.1.2-3.3s0-.2-.3-.2-.5,0-1.2-.2c-.8-.2-1.6-.3-3-.3-4,0-6.4,2.3-6.4,5.6,0,2.1.8,4,4,6.8l1.3,1.2c2.6,2.1,3.6,3.5,3.6,5.6s-1.5,4.1-4.5,4.1c-2.1,0-4.1-.8-4.6-3.1-.2-.5-.2-.8-.2-1.2q0-.3-.2-.3c-.2,0-.2.2-.2.5,0,.5-.2,1.8-.2,3.3,0,.8,0,1,.5,1.2,1.6.6,3.1.9,4.6.9ZM474.4,52.4c-.5,1.5-1.2,2.8-2.6,3h-.8c-.2,0-.3,0-.3.2s.2.3.7.3c1.5,0,3.1-.2,3.5-.2.3,0,1.6.2,2.5.2.3,0,.5,0,.5-.3,0-.2-.2-.2-.3-.2h-.6c-.5,0-1.2-.3-1.2-.8s.2-1.3.5-2.1l1.8-5.4c0-.2.2-.3.3-.3h6.8q.2,0,.3.2l3,7.6c.2.5,0,.8-.2.8s-.2.2-.2.2c0,.2.3.2,1,.2h4.9c.3,0,.7,0,.7-.3,0-.2-.2-.2-.3-.2-.3,0-.8,0-1.3-.2-.7-.2-1.5-.7-2.6-3.5-2-4.8-6.8-17.5-7.3-18.8-.3-1-.5-1.2-.7-1.2s-.3.2-.7,1.2l-7.4,19.6ZM478.7,45.6q-.2,0-.2-.2l2.8-8.4c.2-.5.3-.5.5,0l3,8.4q0,.2-.2.2h-5.9ZM510,53.2c0,.5-.2.8-.7,1.2-.8.5-2.5.7-3.5.7-2.8,0-5.6-1-8.1-3.3-1.2-1-3.3-4.3-3.3-8.6,0-3.6,1.3-6.4,3.1-7.9,2.3-1.8,4.6-2,6.6-2,4,0,6.6,1.3,7.3,2.5.5.8.7,1.6.7,2,0,.3,0,.5.2.5s.3-.2.3-.7c0-3.1.2-4,.2-4.5,0-.2,0-.3-.3-.3-.8,0-1.8-.2-2.5-.3-.7-.2-2.8-.5-4.8-.5-2.5,0-5.4.2-8.2,2s-5.1,5.3-5.1,10.2c0,4,1.8,7.3,3.6,8.9,3.5,3,7.9,3.3,10.2,3.3,1.8,0,4.6-.3,6.6-1.3.3-.2.3-.3.3-1.6v-6.8c0-1.2.3-1.6,1.2-1.8.3,0,.5-.2.8-.2.2,0,.3,0,.3-.2s-.2-.3-.5-.3c-1,0-3,.2-3,.2-.2,0-2.1-.2-3.5-.2-.3,0-.5,0-.5.3,0,.2.2.2.3.2.3,0,.8,0,1,.2,1.3.3,1.3.7,1.3,3.1v5.2ZM518.1,46.8c0,3,0,5.4-.2,6.8-.2.8-.3,1.6-.8,1.6-.3,0-.7.2-1,.2-.2,0-.3.2-.3.2,0,.2.2.3.5.3h3.1c.8,0,3,.2,7.7.2,1.2,0,1.5,0,1.6-.8.2-.7.3-2.8.3-3s0-.5-.2-.5-.2.2-.3.5c-.2,1.3-.7,2-1.3,2.3-.8.3-2.1.3-3,.3-3,0-3.5-.3-3.6-2.5v-8.1q0-.2.2-.2c.5,0,3.6,0,4.5.2,1.2.2,1.5.7,1.6,1.2.2.3.2.7.2,1,0,.2,0,.3.2.3s.2-.3.2-.7c0-.2,0-1.3.2-2,.2-1,.3-1.5.3-1.8,0-.2,0-.3-.2-.3s-.3.2-.5.3c-.3.3-.7.3-1.5.5h-4.9c-.2,0-.2-.2-.2-.3v-8.6c0-.2,0-.3.2-.3.3,0,3.8,0,4.3.2,1.6.2,2,.5,2.1,1,.2.3.2.8.2,1.2q0,.3.3.3c.2,0,.2-.2.2-.3,0-.3.2-1.8.2-2,.2-.8.3-1.3.3-1.5s0-.3-.2-.3-.3.2-.5.2c-.3,0-.8.2-1.3.2h-7.1c-.2,0-2.1-.2-3.5-.2-.3,0-.5,0-.5.3,0,.2.2.2.3.2.3,0,.8,0,1,.2,1,.2,1.3.7,1.3,1.8v11.9h.1ZM534.4,36.7c1,1.2,4.5,5.1,8.1,8.9,3.3,3.5,7.7,8.1,8.1,8.4,1.6,1.6,2,2,2.3,2,.2,0,.3-.2.3-2.1v-18.1c0-1.8.2-2.5,1.2-2.8.3-.2.7-.2.8-.2.2,0,.3-.2.3-.2,0-.2-.2-.2-.5-.2-1.3,0-2.3.2-2.6.2s-1.8-.2-3.3-.2c-.3,0-.7,0-.7.2s0,.2.3.2,1,0,1.5.2c1,.3,1.2,1,1.2,3l.3,15.8c-1-1-4.5-4.8-7.4-8.1-4.8-5.1-9.4-10.1-9.9-10.7-.3-.3-.8-1-1.2-1s-.3.3-.3,1.5v17.8c0,2.8-.2,3.8-1,4-.5.2-1,.2-1.3.2-.2,0-.3,0-.3.2s.2.3.5.3c1.3,0,2.6-.2,3-.2s1.5.2,3.3.2c.3,0,.5,0,.5-.3,0-.2-.2-.2-.3-.2-.3,0-1,0-1.5-.2-.8-.3-1.2-1-1.2-3.6l-.2-15ZM569.7,56.3c2,0,4.3-.2,5.6-.7.5-.3.7-.3.8-.8.3-1,.7-3.8.7-4,0-.3,0-.5-.2-.5s-.3.2-.3.5c-.2.5-.5,2-1.2,2.6-1.3,1.3-3.1,1.5-5.4,1.5-6.6,0-11.2-5.4-11.2-11.4,0-3.1.5-5.9,2.8-8.1,1.2-1,3-2.3,7.1-2.3,2.8,0,5.1.8,6.3,1.8.8.7,1.3,2,1.3,3.1,0,.5,0,.7.3.7.2,0,.2-.2.3-.7,0-.5,0-2.1.2-3.1,0-1.2.2-1.5.2-1.8,0-.2,0-.3-.3-.3-1,0-2-.3-3.1-.5-1.5-.3-3.3-.3-4.5-.3-4.8,0-7.6,1.5-9.4,3.3-2.8,2.8-3.5,6.4-3.5,8.4,0,3,.8,6.4,3.8,9.2,1.9,2.3,5,3.4,9.7,3.4ZM588,50.4c0,.5,0,1.8-.2,3.1,0,.8-.3,1.6-1,1.6-.3,0-.7.2-1,.2-.2,0-.3.2-.3.2,0,.2.2.3.5.3,1,0,3-.2,3-.2.2,0,2.1.2,3.8.2.3,0,.5-.2.5-.3s0-.2-.3-.2-1,0-1.3-.2c-1-.2-1.2-.8-1.3-1.6-.2-1.3-.2-2.6-.2-3.1v-2.6c0-1,0-2,.5-3.1.5-1.3,4.9-8.6,5.9-9.9.7-.8,1-1.2,1.6-1.6.5-.3,1.2-.5,1.5-.5s.3-.2.3-.3-.2-.2-.3-.2c-.7,0-2.8.2-3,.2-.3,0-1.3-.2-2-.2-.3,0-.5,0-.5.2s.2.2.5.3c.3.2.5.5.5.8s-.2,1-.5,1.6c-.7,1-4.6,7.7-5.1,9.1-.5-.8-5.3-8.9-5.8-9.9-.2-.5-.3-.8-.3-1.2,0-.3.2-.5.3-.5.3-.2.5-.2.5-.3s0-.2-.3-.2c-1.2,0-2.5.2-2.6.2s-2.5-.2-3.1-.2c-.3,0-.3.2-.3.2,0,.2.2.2.3.2.3,0,.8.2,1.3.5s1.3,1.2,2.1,2.3c1.2,1.6,5.3,8.4,5.4,8.9.3.8.7,1.6.7,3.3l.2,2.9Z"/>
    <g id="uuid-35a75391-4005-4c6b-b9ca-18aee4ab989c" data-name="logo">
      <path id="uuid-2b6b80ed-2485-4c99-a831-84e81532ff2a" data-name="path44" class="uuid-ecd1d5a8-5d44-4033-9dca-ce9307e38459" d="M97.8,48.9C97.8,21.9,75.9,0,48.9,0S0,21.9,0,48.9s21.9,48.9,48.9,48.9,48.9-21.9,48.9-48.9Z"/>
      <path id="uuid-d46d9e74-7a88-4f51-9a4f-1cac6e7ef240" data-name="path90" class="uuid-fda95922-c39a-4781-ad6a-e3c66310ba8d" d="M18.9,36.2c-1.9,3.5-2.9,7.5-2.9,11.6,0,15.8,14.3,28.6,32.1,28.6s32.1-12.8,32.1-28.6c0-4.2-1-8.1-2.9-11.6H18.9Z"/>
      <path id="uuid-e60cb9a0-cafd-4fb8-9c24-b51d98be38a7" data-name="path114" class="uuid-ecd35ab1-dca1-4402-aad7-edb1531d7c63" d="M48.2,49.6v-22.8c-16.4.3-29.5,5.2-29.5,11.4.1,6,13.4,11,29.5,11.4Z"/>
      <path id="uuid-c06c3064-b905-45f4-8be6-f6f6e0e6ba5c" data-name="path138" class="uuid-c6e635dd-f2a6-4c33-9baf-0093822e362c" d="M77.7,38.2c0-6-13.1-11-29.5-11.4v22.8c16.1-.4,29.5-5.4,29.5-11.4Z"/>
      <path id="uuid-3bf61098-168d-42aa-b01a-438feaddfd04" data-name="path160" class="uuid-1e9d6616-e826-4b2a-b1f6-54939b4a5c94" d="M48.9,49.6c6.3,0,11.4-5,11.4-11.4s-5.1-11.4-11.4-11.4-11.4,5.2-11.4,11.4,5.1,11.4,11.4,11.4Z"/>
    </g>
  </g>
</svg>