<?xml version="1.0" encoding="UTF-8"?>
<svg id="uuid-79e2b0d0-e1a7-4462-a570-5ba13d84e07d" data-name="图层 2" xmlns="http://www.w3.org/2000/svg" viewBox="0 0 923.09 192.47">
  <defs>
    <style>
      .uuid-b7409f17-4b54-40e9-82b1-bed9d52ada56 {
        fill: #007cba;
      }

      .uuid-b7409f17-4b54-40e9-82b1-bed9d52ada56, .uuid-b3e69e3c-0591-48bc-8e5b-61b65e7a8c88 {
        stroke-width: 0px;
      }

      .uuid-b3e69e3c-0591-48bc-8e5b-61b65e7a8c88 {
        fill: #fff;
      }
    </style>
  </defs>
  <g id="uuid-fde5c95d-60bc-4f1d-9105-4850c922bc9a" data-name="Layer 1">
    <path id="uuid-34d70ea5-b0d2-45cd-99e7-127cf65af350" data-name="path4140" class="uuid-b7409f17-4b54-40e9-82b1-bed9d52ada56" d="M246.24,155.94h1.06c8.29,0,13.96-2.84,13.96-11.06,0-7.61-4.63-11.63-12.4-11.63h-2.64v22.69h.02ZM240.46,128.31h9.22c8.33,0,17.67,4.37,17.67,16.14s-9.19,16.42-18.13,16.42h-8.76v-32.56ZM300.7,160.87h-4.09l-10.05-25.39v25.39h-5.77v-32.56h8.7l9.19,23.84,9.48-23.84h8.59v32.56h-5.77v-25.31l-10.27,25.31h-.01ZM331.63,128.31h5.75v32.56h-5.75v-32.56ZM374.13,160.87l-16.09-22.01v22.01h-5.77v-32.56h5.07l16.19,22.05v-22.05h5.77v32.56h-5.17ZM394.18,128.31h5.75v32.56h-5.75v-32.56ZM425.67,132.73c-2.7,0-4.83,1.35-4.83,3.82s3.19,3.59,5.79,4.45c4.8,1.62,10.2,3.76,10.2,10.34,0,7.15-6.52,10.08-11.92,10.08-4.93,0-8.65-1.72-12.18-5.21l3.91-3.73c2.84,2.73,4.97,3.99,8.33,3.99,2.87,0,5.75-1.41,5.75-4.8,0-3.12-3.3-4.28-6.68-5.49-4.38-1.58-8.98-3.73-8.98-9.34,0-6.21,4.93-9.09,10.27-9.09,4.05,0,7.35,1.25,10.51,3.62l-3.39,4.14c-1.67-1.49-4.28-2.79-6.79-2.79M460.46,133.22v27.65h-5.75v-27.65h-7.93v-4.91h21.59v4.93h-7.91v-.02ZM488.94,142.63c3.73,0,6.55-1.35,6.55-4.6,0-2.87-2.3-4.8-5.63-4.8h-4.17v9.41h3.25ZM490,128.31c5.17,0,11.58,2.66,11.58,9.58,0,5.26-3.63,8.04-7.44,9.12l10.08,13.86h-7.15l-9.31-13.3h-2.05v13.29h-5.75v-32.56h10.04ZM563.72,133.22v27.65h-5.77v-27.65h-7.9v-4.91h21.57v4.93h-7.9v-.02ZM583.21,128.31h5.75v32.56h-5.75v-32.56ZM619.29,132.82c-6.23,0-10.77,5.17-10.77,11.78s4.54,11.78,10.77,11.78,10.84-5.17,10.84-11.78-4.57-11.78-10.84-11.78M619.29,161.43c-9.58,0-16.88-7.54-16.88-16.85s7.3-16.81,16.88-16.81,16.95,7.53,16.95,16.81-7.33,16.86-16.95,16.86M671.53,160.87l-16.09-22.01v22.01h-5.77v-32.56h5.06l16.2,22.05v-22.05h5.75v32.56h-5.15ZM222.09,160.87h6.61l-12.32-32.56h-4.8l-12.98,32.56h6.32l2.34-6.42h8.93l-1.72-4.84h-5.46l4.57-12.5h.04l8.47,23.76h0ZM537.1,160.87h6.61l-12.32-32.56h-4.78l-12.98,32.56h6.32l2.33-6.42h8.95l-1.72-4.84h-5.46l4.57-12.5h.06l8.45,23.76h-.03ZM225.42,95.84h.03c6.43-.06,11.85-2.21,16.09-6.36,4.22-4.06,6.43-9.59,6.56-16.46V31.28h-12.68v40.75c-.06,3.59-1.01,6.28-2.82,8.07-1.87,1.9-4.22,2.82-7.18,2.82s-5.23-.92-7.1-2.87c-1.87-1.78-2.82-4.4-2.87-7.97V31.29h-12.64v41.8c.06,6.84,2.3,12.35,6.66,16.4,4.27,4.17,9.62,6.32,15.97,6.36M266.73,82.92h-12.21v12.44h12.21v-12.44ZM343.62,82.92h-12.18v12.44h12.18v-12.44ZM379.69,95.21h12.67v-25.71h18.92v-11.98h-18.92v-13.93h28.44v-12.44h-41.11v64.06h0ZM459.78,63.18c0,5.79-.2,9.72-.57,11.66-.36,1.75-1.01,3.16-2.04,4.35-.72,1.01-1.67,1.8-2.93,2.47-2.47,1.44-6.35,1.58-9.02-.06-1.25-.63-2.27-1.47-3.12-2.59-.92-1.01-1.54-2.41-1.87-4.19-.39-1.97-.57-5.89-.57-11.66s.19-9.74.57-11.78c.33-1.72.92-3.05,1.94-4.21.78-1.01,1.81-1.87,3.07-2.54,1.19-.65,2.69-1.01,4.45-1.05,1.77.04,3.3.4,4.54,1.03,1.21.68,2.18,1.52,3.02,2.69.92,1.03,1.58,2.44,1.92,4.08.37,2.01.57,5.99.57,11.78M469.66,42.54c-1.49-3.06-3.94-5.8-7.25-8.16-3.39-2.44-7.67-3.68-12.73-3.73-4.98.06-9.22,1.29-12.57,3.71-3.36,2.34-5.86,5.07-7.33,8-1.01,1.65-1.75,3.81-2.23,6.42-.43,2.48-.62,7.21-.62,14.39s.2,11.74.62,14.26c.23,1.41.52,2.59.92,3.66.36.86.75,1.72,1.22,2.73,1.54,3.06,4.02,5.77,7.37,8.04,3.38,2.41,7.61,3.71,12.55,3.84h.1c5-.14,9.26-1.44,12.64-3.84,3.33-2.3,5.77-5.03,7.14-7.86,1.15-1.68,1.94-3.91,2.37-6.61.36-2.56.53-7.21.53-14.25s-.17-11.84-.55-14.36c-.43-2.61-1.21-4.8-2.21-6.26M515.22,63.18c0,5.79-.22,9.72-.57,11.66-.36,1.75-1.01,3.16-2.05,4.35-.72,1.01-1.67,1.8-2.94,2.47-2.44,1.44-6.32,1.58-9.01-.06-1.25-.63-2.27-1.47-3.12-2.59-.9-1.01-1.52-2.41-1.84-4.19-.4-1.97-.6-5.89-.6-11.66s.2-9.74.6-11.78c.32-1.72.92-3.05,1.92-4.21.78-1.01,1.81-1.87,3.07-2.54,1.21-.65,2.7-1.01,4.45-1.05,1.8.04,3.33.4,4.55,1.03,1.21.68,2.18,1.52,3.02,2.69.93,1.03,1.58,2.44,1.92,4.08.36,2.01.57,5.99.57,11.78M525.12,42.54c-1.51-3.06-3.94-5.8-7.25-8.16-3.4-2.44-7.67-3.68-12.74-3.73-4.97.06-9.19,1.29-12.55,3.71-3.36,2.34-5.86,5.07-7.33,8-1.01,1.65-1.75,3.81-2.23,6.42-.43,2.48-.63,7.21-.63,14.39s.2,11.74.62,14.26c.22,1.41.52,2.59.9,3.66.36.86.76,1.72,1.22,2.73,1.55,3.06,4.06,5.77,7.38,8.04,3.38,2.41,7.61,3.71,12.55,3.84h.1c5-.14,9.26-1.44,12.64-3.84,3.33-2.3,5.77-5.03,7.14-7.86,1.15-1.68,1.92-3.91,2.36-6.61.36-2.56.53-7.21.53-14.25s-.14-11.84-.53-14.36c-.43-2.61-1.21-4.8-2.21-6.26M552.5,43.59h9.05c3.66,0,6.42,1.38,8.56,4.41.96,1.12,1.58,2.64,1.84,4.45.23,2.2.36,5.92.36,11.06s-.14,8.91-.34,10.77c-.23,1.62-.75,2.97-1.61,4.12-1.9,2.94-4.88,4.38-9.19,4.38h-8.66v-39.2h-.01ZM581.58,42.25c-4.31-7.33-10.84-11.06-19.43-11.1h-22.32v64.06h21.72c4.74,0,8.83-1.11,12.07-3.25,3.3-2.01,5.93-4.6,7.8-7.68.68-1.15,1.25-2.23,1.75-3.33.49-1.15.86-2.44,1.08-3.88.49-2.7.72-7.24.72-13.88,0-6.22-.14-10.49-.46-13.13-.43-2.73-1.39-5.37-2.92-7.8M722.55,43.59h9.05c3.66,0,6.42,1.38,8.56,4.41.95,1.12,1.58,2.64,1.82,4.45.23,2.2.36,5.92.36,11.06s-.14,8.91-.34,10.77c-.23,1.62-.72,2.97-1.58,4.12-1.9,2.94-4.91,4.38-9.22,4.38h-8.65v-39.2h0ZM751.64,42.25c-4.31-7.33-10.84-11.06-19.45-11.1h-22.32v64.06h21.72c4.74,0,8.82-1.11,12.07-3.25,3.3-2.01,5.93-4.6,7.8-7.68.68-1.15,1.25-2.23,1.77-3.33.47-1.15.86-2.44,1.08-3.88.47-2.7.72-7.24.72-13.88,0-6.22-.14-10.49-.47-13.13-.4-2.73-1.39-5.37-2.92-7.8M779.66,43.09h11.96c2.36,0,4.14.47,5.36,1.48,1.41,1.05,2.11,2.79,2.15,5.29,0,2.15-.65,3.91-2.01,5.39-1.29,1.52-3.25,2.3-5.98,2.3h-11.49v-14.45h0ZM811.32,49.84c-.19-6.13-2.37-10.95-6.46-14.25-3.4-2.94-7.84-4.45-13.14-4.45h-24.73v64.06h12.68v-25.71h8.19l12.07,25.71h14.84l-14-27.69c6.89-3.45,10.46-9.34,10.57-17.67M853.98,71.89c-.04,3.59-.98,6.29-2.8,8.07-1.9,1.9-4.24,2.83-7.18,2.83s-5.24-.93-7.12-2.87c-1.87-1.8-2.82-4.42-2.84-8V31.13h-12.68v41.8c.06,6.84,2.3,12.35,6.66,16.42,4.25,4.17,9.62,6.29,15.97,6.36,6.46-.09,11.86-2.23,16.09-6.38,4.24-4.08,6.46-9.59,6.56-16.46V31.16h-12.68l.03,40.74h-.01ZM639.9,53.1c1.67-1.15,3.42-2.15,4.84-3.63,1.32-1.39,1.87-3.02,1.47-4.88-.79-3.69-5.4-5.37-8.53-3.12-1.87,1.29-2.59,4.17-1.64,6.35.89,2.01,2.48,3.53,3.84,5.27M649.38,81.55c-4.31-5.06-8.58-10.05-12.86-15.11-1.55,1.11-2.9,2.3-4.17,3.62-1.68,1.72-2.37,3.85-2.37,6.21,0,4.02,2.53,7.47,6.41,8.62,3.3.95,6.52.62,9.59-.92,1.24-.62,2.34-1.44,3.39-2.41M646.19,60.29c3.62,4.31,7.22,8.55,10.87,12.87,1.22-1.65,1.95-3.45,2.44-5.37.46-1.92.72-3.88.83-5.89h11.13c-.11,1.22-.2,2.4-.34,3.59-.34,2.79-.89,5.56-1.8,8.23-.96,2.87-2.44,5.46-4.42,7.73-.1.11-.19.24-.29.4l11.45,13.53c-.14.19-.29.11-.43.11h-13.93c-.32,0-.53-.07-.76-.34-1.35-1.65-2.76-3.3-4.14-4.94l-.24-.34c-1.01.76-1.95,1.49-2.92,2.15-3.02,2.15-6.41,3.35-10.05,3.78-4.02.49-8.01.32-11.92-.75-7.25-1.97-11.4-6.75-12.71-14.08-.46-2.67-.57-5.37.04-8.04.69-2.97,2.18-5.54,4.17-7.86,1.87-2.18,4.17-3.88,6.46-5.52l.52-.34c-.57-.69-1.12-1.34-1.65-2.01-2.01-2.48-3.68-5.13-4.35-8.27-1.52-6.92,1.36-14.03,8.7-16.95,3.63-1.44,7.38-1.72,11.2-1.24,3.3.43,6.21,1.67,8.69,3.88,2.15,1.92,3.52,4.31,4.17,7.1.68,2.93.78,5.86-.4,8.7-.75,1.8-2.01,3.22-3.39,4.54-1.87,1.81-4.09,3.2-6.18,4.74-.24.2-.49.37-.78.57M900.34,58.24v12.44h10.03v1.19c-.06,3.3-1.01,5.86-2.94,7.86-1.87,2.05-4.21,3.02-7.12,3.02-1.72,0-3.19-.34-4.51-1.15-1.25-.62-2.27-1.44-3.12-2.59-.92-1.01-1.54-2.4-1.87-4.17-.39-1.98-.57-5.89-.57-11.68s.19-9.74.6-11.78c.29-1.72.9-3.05,1.92-4.21.76-1.01,1.8-1.87,3.06-2.54,1.19-.66,2.73-1.01,4.4-1.05,2.4.04,4.38.72,5.96,2.01,1.65,1.49,2.76,3.25,3.38,5.36l.43,1.38h13.1l-.43-2.3c-1.01-5.42-3.45-10.01-7.27-13.7-3.88-3.73-8.95-5.64-15.08-5.69-4.98.04-9.22,1.29-12.57,3.73-3.36,2.34-5.86,5.07-7.33,8-1.01,1.67-1.75,3.82-2.23,6.42-.43,2.48-.63,7.18-.63,14.36s.22,11.74.63,14.26c.23,1.41.53,2.59.93,3.66.34.86.75,1.72,1.21,2.73,1.54,3.06,4.05,5.77,7.38,8.04,3.36,2.41,7.58,3.71,12.54,3.84h.09c4.11-.1,7.81-1.08,11.06-2.92v2.51h11.69v-37.06h-22.74v.03ZM303.65,41.98c-4.31,0-8.19,2.15-8.19,6.29,0,4.85,5.95,6.21,10.8,7.9,8.91,3.07,19.61,7.21,19.61,20.43s-12.86,19.51-23.84,19.51c-9.7,0-17.24-3.68-24.07-10.51l8.55-8.36c5.13,4.94,9.09,7.9,15.66,7.9,5.03,0,9.97-2.41,9.97-8s-5.75-7.47-12.15-9.8c-8.19-3.06-17.35-6.65-17.35-18.7s10.16-17.61,20.58-17.61c8.09,0,14.48,2.61,20.86,7.47l-7.38,9.19c-3.49-2.99-8.19-5.69-13.03-5.69M0,192.47h160.79V0H0v192.47Z"/>
    <path id="uuid-59b39a5b-60bd-4700-90f4-276d4ae35c01" data-name="path4142" class="uuid-b3e69e3c-0591-48bc-8e5b-61b65e7a8c88" d="M112,78.54h12.93l-2.66-9.24h-7.33l6.51-19.2,13.59,40.82h11.56l-20.11-53.58h-10.63l-20.14,53.58h12.01l4.27-12.38h0ZM27.24,68.83h15.08v-9.62h-15.08v-12.25h45.3c2.24.09,4.22.43,5.82,1.12,1.82.8,3.3,1.92,4.45,3.38,1.15,1.44,2.01,3.23,2.53,5.36.53,2.15.8,4.5.8,7.1s-.29,5.03-.9,7.18c-.6,2.11-1.54,3.95-2.82,5.5-1.29,1.55-2.94,2.73-5,3.56-2.05.82-4.54,1.25-7.44,1.25h-7.18v-22.09h-11.2v31.6h18.17c4.35,0,8.24-.57,11.71-1.72,3.45-1.15,6.38-2.87,8.76-5.17,2.41-2.3,4.25-5.13,5.53-8.47,1.29-3.35,1.91-7.25,1.91-11.71,0-8.76-2.3-15.37-6.87-19.82-4.19-4.08-9.91-6.32-17.16-6.68H16.05v53.58h11.2v-22.1Z"/>
  </g>
</svg>