
<svg xmlns="http://www.w3.org/2000/svg" viewBox="0 0 1024 1024">
    <rect fill="none" width="1024" height="1024"/>
    <path fill="#000" d="M574.1,485.08c.8-2.7,1.58-5.74,2.28-8.61,5.27-22.24,6.38-42.97,3.17-51.45-.09-.28-.39-1.06-.79-1.56-.55-.7-1.27-.94-1.92-.43-6.44,5.04-11.05,41.86-3.02,62.47l.05.07.23-.49ZM520.31,523.29c8.03-30.1,11.76-67.71,7.05-78.27-.15-.35-.31-.68-.53-.94-.48-.56-1.2-.83-1.94-.26-6.2,4.84-14.22,53.74-4.58,79.47ZM410.22,630.25c-7.97.45-18.42,3.57-25.56,9.14-6.93,5.41-9.24,11.6-6.56,15.03,3.09,3.95,9.82,1.47,15.83-3.23,7.3-5.71,12.38-12.85,16.28-20.94ZM433.96,536.96c10.52-15.47,16.48-35.29,18.74-52.88,2.08-16.27.99-32.82-3.19-38.16-.95-1.22-2.4-1.27-3.51-.41-4.25,3.32-7.91,15.28-10.27,34.61-1.83,15.09-2.64,34.33-1.77,56.84ZM669.47,407.6c-2.68,21.42-14.48,83.76-2.74,119.28l-14.79,6.45c-4.96-14.64-6.8-41.99-4.07-66.34-2.02,3.33-4.71,6.08-7.12,7.96-3.65,2.85-7.35,3.97-10.67,3.23-2.39-.53-4.54-1.99-6.34-4.3-.39-.5-.75-1.04-1.12-1.66-6.22,16.49-13.21,27.22-22.56,34.52-7.27,5.68-15.88,7.3-23.04,3.95-7.22,15.05-16.25,26.76-25.7,34.14-8.79,6.87-18.59,8.92-26.8,5.12-6.68,16-14.36,27.05-22.42,33.34-4.64,3.63-9.32,5.21-13.59,4.63-3.13-.43-5.95-2.13-8.25-4.82-3.71,10.99-10.41,25.39-21.85,34.34s-22.68,11.25-31.87,12.03c-5.51,12.96-14.15,23.92-25.44,32.75-8.54,6.67-25.09,13.87-34.65,1.64-7.72-9.88-2.64-24.63,11.15-35.4,11.73-9.17,26.89-13.05,37.99-13.47,2.55-10.62,3.75-23.64,3.81-40.74-1.76,1.53-3.5,2.98-5.26,4.35-15.96,12.47-32.96,18.19-46.66,15.63-7.4-1.38-13.33-5.15-17.72-10.76-17.34-22.19-2.77-61.31,19.77-83,4.49,2.4,8.16,4.1,12.28,6.3-22.03,21.74-30.99,51.85-20.05,65.86,7.19,9.21,24.78,10.36,46.75-6.81,3.76-2.94,7.26-6.25,10.58-9.68-1.52-41.92-4.28-106.72,21.29-126.69,7.57-5.92,15.11-4.4,19.93,1.76,9.89,12.66,9.66,34.78,8.12,47.43-2.4,19.91-9.53,52.31-33.37,79.83.95,23.79-.16,40.93-3.46,55.26,7.76-1.32,14.28-3.51,20.38-8.29,15.15-11.83,19-37.19,21.3-57.92l.1-.71h14.42s-.04.81-.04.81c-.53,9.79-.4,19.59,2.29,23.03,2.05,2.63,4.66,1.42,6.56-.07,5.81-4.54,11.81-15.27,17.28-29.97l-.07-.09c-19.16-26.92-14.75-94.43,6.8-111.26,6.08-4.75,11.94-4.46,16.09.85,10.19,13.04,9.53,58.58-6.47,105.53v.02c4.55,2.32,9.82,1.03,16.43-4.14,5.17-4.04,13.45-14.22,20.55-29.87-9.14-14.57-12.81-35-11.19-52.87,1.65-17.92,7.29-33.15,16.7-40.5,5.8-4.53,11.74-4.01,15.65,1,8.88,11.37,10.88,41.12-5.02,86.33,3.54,1.63,7.62,1.22,11.86-2.1,9.47-7.4,18.26-30.55,21.55-53.14l15-.04c-.21,7.95-.08,16.42,2.44,19.37.8.96,1.99,1.1,3.55-.13,9.58-7.49,14.79-31.92,17.38-51.92l14.32-.05ZM475.66,517.02c4.23-3.3,10.34-2.54,13.63,1.68s2.57,10.34-1.66,13.65-10.35,2.56-13.66-1.68-2.56-10.34,1.68-13.65Z"/>
</svg>