<?xml version="1.0" standalone="no"?><!DOCTYPE svg PUBLIC "-//W3C//DTD SVG 1.1//EN" "http://www.w3.org/Graphics/SVG/1.1/DTD/svg11.dtd"><svg t="1771918605201" class="icon" viewBox="0 0 1024 1024" version="1.1" xmlns="http://www.w3.org/2000/svg" p-id="14880" xmlns:xlink="http://www.w3.org/1999/xlink" width="200" height="200"><path d="M509.099633 220.257248c7.336221 1.194269 13.819394 2.559147 20.985005 4.777074 33.78074 11.260247 64.319893 32.415861 60.907698 71.997334-44.358547 0.17061-80.015995-14.672443-109.872709-47.770743 0-0.17061-0.682439-0.853049-0.682439-0.853049-7.165611-8.7011-12.966345-18.255248-17.4022-28.662446 15.013662-1.876708 30.709763-1.876708 46.064645 0.51183m36.510497 100.830389c40.946351 15.696101 81.039653 46.064645 68.585138 95.200267-52.377208-8.53049-102.365878-51.182939-115.161613-104.071976 15.696101 1.023659 31.562812 3.753416 46.576475 8.871709m15.354882 107.654782c18.255248 11.089637 31.050983 22.008664 43.164278 39.752083 14.501833 23.714762 20.643785 47.088304 7.677441 73.020993-53.742086-22.179274-92.64112-73.874042-96.223925-131.369544 15.866711 4.094635 31.221593 10.236588 45.382206 18.596468m-7.165612 110.725758c33.098301 31.392203 61.590137 77.627458 30.197934 120.450517-48.453182-29.515495-79.162946-90.764412-72.167944-148.089304 15.184272 7.336221 29.344885 16.54915 41.97001 27.638787m-28.833055 102.877708c27.297567 37.022326 47.770743 88.546485 8.35988 125.227591-41.97001-38.045985-62.784405-105.436854-45.552816-160.714429 13.819394 10.407198 26.444518 22.179274 37.192936 35.486838m-48.111963 92.12929c6.312562 11.942686 10.577807 22.349883 13.990003 35.486838 7.336221 36.510497 3.924025 72.509164-30.197934 93.835388-27.468177-40.263912-37.363545-89.740753-26.785738-137.511496 2.559147-11.942686 6.653782-23.373542 12.283905-34.12196 11.942686 12.795735 22.520493 26.956348 30.709764 42.31123M410.999 815.685438c12.625125 48.111963 11.772076 105.948684-41.45818 127.616128-25.25025-53.230257-17.743419-129.322226 18.937687-176.581139 9.554149 15.184272 17.231589 31.562812 22.520493 48.965011m40.434522-689.092969c40.946351 0.17061 87.352216 12.966345 92.47051 60.225258-39.581473 9.042319-84.451849-1.535488-115.332223-27.980006-8.35988-7.165611-15.525492-15.354882-21.667444-24.397201 14.501833-4.435855 29.344885-7.336221 44.529157-7.848051M419.87071 36.681106c16.37854 35.316228 44.358547 63.125625 85.646118 61.931357 11.430856-42.481839-21.326225-78.309897-59.2016-91.617461-12.625125-4.435855-25.762079-6.653782-39.069643-6.995002 3.070976 12.625125 7.165611 25.07964 12.625125 36.681106m201.49017 124.545152c-2.729757 7.336221-4.947684 14.672443-7.165612 22.179273-9.895368 36.169277-16.037321 72.167944 9.042319 103.560147 42.31123-30.368544 54.765745-80.357214 39.410864-129.322226-4.777074-15.184272-11.942686-29.686105-20.985005-42.652449-7.677441 14.843052-14.672443 30.368544-20.302566 46.235255m53.571476 122.497834c-22.691103 35.145618-48.282572 88.205265-26.615128 129.492836 67.732089-24.90903 82.575142-109.36088 57.495501-170.780407-11.260247 12.966345-21.667444 26.785738-30.880373 41.287571m27.980007 134.44052c-15.696101 16.207931-28.150616 31.050983-39.922693 50.32989-14.331223 25.25025-23.202932 47.941353-17.06098 77.286238 46.235255-7.677441 71.656115-34.975008 88.887705-77.286238 10.065978-26.103299 12.454515-58.177941 8.01866-85.646118-14.160613 10.748417-27.468177 22.691103-39.922692 35.316228m-0.51183 141.606131c-36.510497 23.373542-86.669777 63.296235-85.816728 111.578807 57.154282 6.483172 102.707098-34.975008 122.327225-85.646118 6.483172-16.89037 10.407198-34.633789 11.601466-52.547817-16.54915 7.677441-32.757081 16.71976-48.111963 26.615128m-29.003665 135.464179c-41.458181 14.672443-100.48917 42.31123-110.555149 90.252582 55.106964 19.449517 109.702099-10.407198 140.923693-56.301233 10.236588-15.013662 18.084638-31.562812 23.373542-48.965011-18.084638 3.753416-36.169277 8.871709-53.742086 15.013662m-55.106965 124.886371c-14.160613 1.706098-27.297567 3.924025-41.116961 7.165611-37.875375 10.407198-71.997334 23.714762-91.105631 60.054649 54.083306 30.027324 103.218927 15.354882 149.283572-21.496835 0.511829-0.17061 4.947684-4.435855 5.630123-5.118293 13.478174-12.625125 25.07964-27.468177 34.12196-43.505499-18.767078-0.17061-37.875375 0.682439-56.813063 2.900367m-80.357214 113.114295c-47.258914-4.094635-116.014662-2.388537-148.430523 38.387204 44.358547 43.676108 111.237587 37.704765 161.396868 7.848051 16.71976-10.065978 31.904032-22.691103 45.040986-37.192936-19.108297-4.435855-38.557814-7.506831-58.007331-9.042319m5.459514-882.393869c-5.118294 38.728424-5.800733 94.517827 30.197934 119.597468 46.405865-48.111963 27.297567-124.886371-20.473176-167.70943-4.435855 15.696101-7.677441 31.904032-9.724758 48.111962" fill="#ffb500" p-id="14881"></path><path d="M505.858047 99.124292c26.103299 34.975008 45.552816 66.537821 64.661113 105.948684 41.116961 90.252582 57.324892 164.126624 58.007331 263.421526-3.924025 126.592469-32.245252 219.233589-100.83039 325.864712-70.461846 100.147951-142.97101 160.885038-254.037987 212.409197 2.559147 5.630123 5.118294 11.430856 7.677441 17.231589 113.967344-53.742086 188.182606-117.038321 259.497501-220.769077 68.755748-109.702099 96.394535-204.902366 98.100633-334.565811-2.729757-100.48917-20.643785-175.045651-65.002333-265.127624-20.473176-39.069643-40.605132-70.120626-68.073309-104.413196" fill="#ffb500" p-id="14882"></path></svg>