<?xml version="1.0" encoding="UTF-8"?>
<svg xmlns="http://www.w3.org/2000/svg" viewBox="0 0 158.74 158.12">
    <path class="uuid-8b49f422-c030-4a00-85af-61158cec94bf" d="M120.14,0c9.17-.15,22.5,1.32,29.62,8.3,9.23,9.04,9.5,28.61,8.69,40.16-1.69,23.94-7.05,46.71-16.06,68.31-4.5,10.78-12.11,18.85-22.84,24.23-21.96,10.97-48.03,15.34-73.33,16.77-11.68.66-33.75,1.84-40.78-12.26C1.93,138.5.12,130.88.02,122.65c-.3-23.53,2.94-45.91,9.7-67.13,5.28-16.56,13.45-31.52,30.13-38.8C64.3,6.02,91.06.46,120.14,0Z"/>
</svg>