<?xml version="1.0" encoding="UTF-8"?>
<svg id="uuid-1599e755-ec73-425b-8741-398b77c8dff4" data-name="图层 2" xmlns="http://www.w3.org/2000/svg" viewBox="0 0 444.61 55.67">
  <defs>
    <style>
      .uuid-9fa6252c-3ef1-4274-98d6-4fb45a2cf156, .uuid-3ce24ec5-5214-4308-8724-9f5bc13dba8f {
        fill: #3d96f7;
        stroke-width: 0px;
      }

      .uuid-3ce24ec5-5214-4308-8724-9f5bc13dba8f {
        fill-rule: evenodd;
      }
    </style>
  </defs>
  <g id="uuid-385fe657-165b-492f-be48-ad67d30d0e02" data-name="uuid-d1a010b1-d27d-4236-a96c-37d1475b58ba">
    <path class="uuid-9fa6252c-3ef1-4274-98d6-4fb45a2cf156" d="M419.92,7.33c.7-1.54,1.65-2.85,2.83-3.93,1.19-1.08,2.55-1.92,4.11-2.51,1.55-.59,3.17-.89,4.88-.89s3.32.3,4.88.89c1.55.59,2.92,1.43,4.1,2.51,1.19,1.08,2.13,2.39,2.83,3.93s1.06,3.25,1.06,5.15-.35,3.65-1.06,5.19c-.7,1.54-1.65,2.85-2.83,3.95-1.18,1.09-2.55,1.93-4.1,2.51-1.56.58-3.18.87-4.88.87s-3.32-.29-4.88-.87c-1.55-.58-2.92-1.42-4.11-2.51-1.18-1.09-2.13-2.41-2.83-3.95-.71-1.54-1.06-3.27-1.06-5.19s.35-3.61,1.06-5.15ZM423.03,16.41c.49,1.2,1.16,2.25,2.01,3.12.85.88,1.85,1.56,3,2.05s2.38.73,3.7.73,2.52-.24,3.67-.73c1.15-.49,2.15-1.17,3-2.05s1.52-1.92,2.02-3.12c.5-1.2.75-2.52.75-3.94s-.25-2.74-.75-3.93-1.18-2.22-2.02-3.09c-.85-.87-1.85-1.55-3-2.04s-2.37-.73-3.67-.73-2.55.24-3.7.73c-1.15.49-2.15,1.17-3,2.04s-1.52,1.9-2.01,3.09-.74,2.5-.74,3.93.24,2.74.74,3.94ZM432.01,5.47c1.77,0,3.13.31,4.08.94.95.62,1.43,1.7,1.43,3.21,0,.65-.1,1.2-.29,1.66-.18.46-.45.83-.78,1.12-.33.29-.72.51-1.17.67s-.92.26-1.43.31l3.76,6.1h-2.93l-3.43-5.99h-1.75v5.99h-2.79V5.47h5.3,0ZM431.98,11.34c.8,0,1.46-.12,1.98-.34.51-.22.77-.77.77-1.62,0-.38-.09-.69-.27-.91s-.41-.4-.69-.52c-.28-.13-.59-.21-.94-.25-.34-.04-.68-.07-.99-.07h-2.34v3.72h2.48Z"/>
    <path class="uuid-3ce24ec5-5214-4308-8724-9f5bc13dba8f" d="M79.9,11.61v40.58c0,1.16.91,2.1,2.07,2.1h13.78c1.17,0,2.11-.95,2.11-2.12V11.61c0-1.16-.93-2.11-2.09-2.12h-13.76c-1.16,0-2.1.95-2.1,2.12h-.01ZM183.86,51.09c.67.94.45,2.25-.49,2.92-.36.26-.79.39-1.23.39h-14.37c-.77,0-1.5-.32-2.03-.88l-4.75-6.52c-.54-.66-1.35-1.04-2.2-1.04h-33.93c-.93,0-1.67.45-2.18,1.14l-4.27,5.87c-.5.87-1.42,1.42-2.43,1.42h-13.84c-1.16,0-2.16-.95-2.16-2.11,0-.51.18-.99.51-1.38l30.97-40.12c.51-.7,1.35-1.2,2.28-1.2h16.75c1.05,0,1.96.59,2.44,1.45l30.92,40.04h0v.02ZM152.05,34.72l-8.37-11.54c-.39-.61-1.06-.98-1.78-.98-.68,0-1.32.34-1.72.89l-8.45,11.64c-.27.36-.42.81-.42,1.26,0,1.16.95,2.1,2.12,2.1h16.91c1.17,0,2.12-.93,2.14-2.1,0-.46-.15-.91-.43-1.28h0ZM427.35,51.09c.22.34.38.78.38,1.21,0,1.16-.94,2.1-2.1,2.1h-14.37c-.79,0-1.52-.35-2.02-.88l-4.75-6.52c-.54-.66-1.35-1.04-2.2-1.04h-33.93c-.93,0-1.67.45-2.18,1.14l-4.27,5.87c-.49.88-1.42,1.42-2.43,1.42h-13.85c-1.16,0-2.16-.94-2.16-2.11,0-.53.19-1,.51-1.38l30.97-40.11c.51-.7,1.35-1.2,2.28-1.2h16.76c1.05,0,1.96.59,2.44,1.45l30.92,40.04h0ZM395.54,34.72l-8.38-11.54c-.39-.61-1.06-.98-1.78-.98-.68,0-1.32.34-1.71.89l-8.45,11.64c-.27.36-.42.81-.42,1.26,0,1.16.95,2.1,2.12,2.1h16.91c1.17,0,2.13-.93,2.15-2.1,0-.46-.15-.91-.43-1.28h0ZM286.1,28.42c-1.16,0-2.11-.95-2.11-2.12v-6.74c0-1.16.94-2.11,2.11-2.11h25.76c7.12,0,8.85,1.07,10.17,2.15,1.22,1.08,1.43,2.6,1.43,3.49,0,5.01-6.92,5.32-10.78,5.32h-26.58ZM324.51,54.4h14.61c1.16,0,2.1-.92,2.11-2.08,0-.56-.22-1.11-.62-1.5l-17.56-15.22c2.84-.31,7.8-.94,11.64-2.77,5.06-2.39,6.89-6.43,6.89-9.86,0-2.6-1.01-5.96-4.66-8.61-5.97-4.3-13.36-4.74-21.5-4.74h-47.33c-1.15-.01-2.09.92-2.09,2.08v40.62c0,1.15.92,2.09,2.07,2.1h13.82c1.16,0,2.1-.94,2.1-2.11h0v-13.92c0-1.16.93-2.1,2.09-2.1h17.53c.58,0,1.13.25,1.51.64l17.88,16.85c.39.4.93.64,1.52.64h0v-.02ZM46.89,54.27c.68.21,1.23-.34,1.61-.87l28.91-40.48c.27-.36.41-.8.41-1.25,0-1.17-.96-2.1-2.13-2.1h-14.04c-.85,0-1.62.49-1.96,1.27l-18.23,28.02c-1.22,1.71-1.42,2.22-2.33,4.25-.71-1.84-1.01-2.41-2.13-4.25L18.54,10.56c-.42-.65-1.14-1.06-1.92-1.07l-14.5.02c-1.15-.02-2.1.9-2.12,2.05v.02c0,.47.17.88.42,1.23l29.45,40.72c.39.48.98.75,1.6.76l15.42-.02c-.14,0,.13.04,0,0h0Z"/>
    <path class="uuid-3ce24ec5-5214-4308-8724-9f5bc13dba8f" d="M242.41,22.01c.39.28.93.52,1.45.52.07,0,.2-.02.26-.02l14.04-1.21c1.16,0,2.11-.95,2.11-2.11,0-.61-.27-1.2-.73-1.6-2.11-1.8-3.69-2.98-9.29-5.15-9.85-3.73-21.11-4.24-28.11-4.24-5.58,0-24.15,0-36.04,7.9-6.41,4.28-9.77,9.88-9.77,15.67,0,10.7,9.36,23.9,43.26,23.9,10.86,0,21.92-1.77,29.62-6.44v3.06c0,1.16.93,2.11,2.09,2.11h9.51c1.17,0,2.11-.94,2.12-2.11v-19.79c.02-1.16-.93-2.11-2.09-2.11h-34.38c-1.16,0-2.1.93-2.11,2.09h0v3.85c-.01,1.16.95,2.06,2.11,2.06h16.63c1.16,0,2.11.96,2.11,2.12h0c0,.75-.4,1.44-1.03,1.83-.61.37-1.31.81-2.16,1.23-4.46,2.24-11.56,3.96-20.08,3.96-17.45,0-27.09-6.89-27.09-15.62,0-9.88,11.26-15.42,26.58-15.42,12.42,0,17.9,3.28,20.98,5.52h0Z"/>
  </g>
</svg>