<?xml version="1.0" encoding="UTF-8"?>
<svg id="uuid-a7fbe0a2-c071-4a55-b7bb-ff8fb00d4b11" data-name="图层 2" xmlns="http://www.w3.org/2000/svg" viewBox="0 0 2263.33 251.19">
  <defs>
    <style>
      .uuid-03bcefa6-0b63-485f-b9a2-5f8cf055d6ea {
        fill: #FFF;
        fill-rule: evenodd;
        stroke-width: 0px;
      }
    </style>
  </defs>
  <g id="uuid-306fae4f-1e3e-4bf6-93ad-502264ac4f01" data-name="图层 1">
    <path class="uuid-03bcefa6-0b63-485f-b9a2-5f8cf055d6ea" d="M422.81,18.04v214.74c0,6.16,4.8,11.09,10.96,11.09h72.89c6.17-.02,11.17-5.02,11.18-11.19V18.04c.04-6.14-4.9-11.15-11.04-11.19-.01,0-.03,0-.04,0h-72.83c-6.16.04-11.13,5.04-11.13,11.19h0ZM972.93,226.96c3.55,4.98,2.38,11.9-2.61,15.45-1.9,1.35-4.17,2.07-6.5,2.05l-76.02-.03c-4.05-.01-7.92-1.68-10.73-4.6l-25.15-34.47c-2.86-3.49-7.13-5.51-11.65-5.5h-179.54c-4.93-.01-8.85,2.36-11.54,6.06l-22.59,31.04c-2.62,4.63-7.52,7.49-12.84,7.5l-.1-.03-.12.08-73.03-.05c-6.15,0-11.45-4.97-11.45-11.12,0-2.68.96-5.26,2.71-7.29L695.66,13.77c2.7-3.7,7.16-6.36,12.09-6.36h88.65c5.58,0,10.38,3.1,12.92,7.65l163.61,211.89h0ZM804.58,140.31l-44.3-61.06c-2.05-3.22-5.6-5.16-9.42-5.16-3.6.05-6.97,1.8-9.08,4.72l-44.71,61.59c-1.43,1.93-2.21,4.27-2.22,6.67.04,6.16,5.05,11.12,11.21,11.09h89.47c6.18.04,11.24-4.91,11.35-11.09,0-2.44-.81-4.82-2.3-6.76h0ZM2261.3,226.96c1.17,1.78,2.02,4.12,2.02,6.41,0,6.12-4.96,11.09-11.09,11.09-.02,0-.03,0-.05,0h-76.02c-4.2,0-8.03-1.83-10.71-4.63l-25.15-34.47c-2.86-3.49-7.14-5.51-11.65-5.5h-179.55c-4.94-.01-8.85,2.36-11.53,6.06l-22.59,31.04c-2.61,4.64-7.52,7.51-12.84,7.52h-73.27c-6.16,0-11.45-4.99-11.45-11.14,0-2.79,1.01-5.32,2.71-7.29L1984.04,13.79c2.71-3.7,7.15-6.36,12.09-6.36h88.66c5.58,0,10.39,3.1,12.92,7.65l163.6,211.87h0ZM2092.96,140.31l-44.33-61.06c-2.04-3.22-5.59-5.17-9.4-5.16-3.6.05-6.96,1.8-9.07,4.72l-44.71,61.59c-1.43,1.93-2.21,4.26-2.23,6.67,0,6.16,5.05,11.09,11.19,11.09h89.47c6.19.05,11.27-4.9,11.37-11.09,0-2.44-.81-4.82-2.3-6.76h0ZM1513.92,106.99c-6.16-.02-11.15-5.03-11.14-11.19v-35.67c0-6.16,4.99-11.14,11.14-11.14l136.31-.03c37.69,0,46.83,5.71,53.82,11.4,6.46,5.69,7.55,13.76,7.55,18.44,0,26.5-36.6,28.17-57.07,28.17h-140.62ZM1717.16,244.45h77.29c6.12.05,11.11-4.88,11.16-10.99.02-2.99-1.16-5.85-3.28-7.95l-92.89-80.56c15.02-1.66,41.27-4.99,61.61-14.66,26.77-12.65,36.43-34.03,36.43-52.15,0-13.76-5.34-31.53-24.64-45.58-31.59-22.74-70.67-25.08-113.74-25.08l-250.43-.04c-6.1-.01-11.06,4.92-11.08,11.02,0,.03,0,.06,0,.09v214.81c-.04,6.09,4.87,11.05,10.96,11.09.04,0,.08,0,.12,0h73.01c6.15,0,11.12-5,11.12-11.14h0s-.05-73.67-.05-73.67c0-6.16,4.92-11.1,11.08-11.1l92.76.05c3.09,0,5.98,1.3,7.98,3.33l94.59,89.15c2.05,2.11,4.9,3.37,8.04,3.37h0ZM248.15,243.78c3.58,1.09,6.5-1.78,8.53-4.59L409.66,24.99c1.42-1.9,2.19-4.21,2.18-6.59-.05-6.17-5.08-11.13-11.24-11.1h-74.3c-4.49-.05-8.57,2.59-10.36,6.71l-96.48,148.28c-6.45,9.07-7.52,11.75-12.35,22.49-3.76-9.73-5.37-12.75-11.28-22.49L98.12,12.54c-2.25-3.46-6.06-5.58-10.18-5.68l-76.73.09C5.11,6.86.09,11.72,0,17.82c0,.03,0,.06,0,.09,0,2.46.89,4.68,2.24,6.52l155.84,215.45c2.09,2.52,5.18,3.98,8.44,4.01l81.62-.12c-.75,0,.67.19,0,0h0Z"/>
    <path class="uuid-03bcefa6-0b63-485f-b9a2-5f8cf055d6ea" d="M1282.72,73.05c2.08,1.5,4.94,2.76,7.68,2.76.35,0,1.04-.1,1.36-.13l74.3-6.39c6.16,0,11.15-5,11.14-11.16,0-3.25-1.42-6.33-3.88-8.45-11.14-9.53-19.51-15.76-49.14-27.25C1272.07,2.68,1212.5,0,1175.46,0c-29.52,0-127.77,0-190.68,41.83-33.92,22.66-51.67,52.28-51.67,82.92,0,56.64,49.52,126.44,228.93,126.44,57.46,0,115.96-9.38,156.75-34.1l-.05,16.21c0,6.16,4.97,11.17,11.12,11.17h50.34c6.17,0,11.18-4.97,11.22-11.14l.08-104.72c0-6.16-4.98-11.16-11.14-11.17h0l-181.93-.05c-6.14-.01-11.13,4.95-11.14,11.09v.03l-.08,20.32c0,6.16,5.07,10.91,11.22,10.91l88,.05c6.16,0,11.15,5.01,11.14,11.17h0c-.02,3.96-2.09,7.63-5.47,9.69-3.24,1.96-6.94,4.28-11.43,6.48-23.6,11.83-61.18,20.95-106.26,20.95-92.34,0-143.33-36.47-143.33-82.66,0-52.28,59.58-81.58,140.64-81.58,65.74-.01,94.72,17.34,111.01,29.21h0Z"/>
  </g>
</svg>