<svg xmlns="http://www.w3.org/2000/svg" aria-hidden="true">
<defs>
    <linearGradient id="icon-grad" x1="0%" y1="100%" x2="100%" y2="0%">
        <stop class="stop1" offset="0%"/>
        <stop class="stop2" offset="100%"/>
    </linearGradient>
</defs>

<!-- icon-feature-1 (chart/improve) -->
<symbol id="icon-feature-1" viewBox="0 0 1024 1024"><path d="M213.333333 768H128c-46.933333 0-85.333333 38.4-85.333333 85.333333s38.4 85.333333 85.333333 85.333334h85.333333c46.933333 0 85.333333-38.4 85.333334-85.333334s-38.4-85.333333-85.333334-85.333333zM554.666667 682.666667h-85.333334c-46.933333 0-85.333333 38.4-85.333333 85.333333v85.333333c0 46.933333 38.4 85.333333 85.333333 85.333334h85.333334c46.933333 0 85.333333-38.4 85.333333-85.333334v-85.333333c0-46.933333-38.4-85.333333-85.333333-85.333333zM896 512h-85.333333c-46.933333 0-85.333333 38.4-85.333334 85.333333v256c0 46.933333 38.4 85.333333 85.333334 85.333334h85.333333c46.933333 0 85.333333-38.4 85.333333-85.333334v-256c0-46.933333-38.4-85.333333-85.333333-85.333333zM938.666667 85.333333h-281.6c-38.4 0-55.466667 46.933333-29.866667 72.533334l81.066667 81.066666C550.4 418.133333 324.266667 554.666667 85.333333 554.666667c-25.6 0-42.666667 17.066667-42.666666 42.666666s17.066667 42.666667 42.666666 42.666667c285.866667 0 550.4-81.066667 742.4-281.6l76.8 76.8c25.6 25.6 72.533333 8.533333 72.533334-29.866667V128c4.266667-25.6-12.8-42.666667-38.4-42.666667z" fill="currentColor"/></symbol>
<!-- icon-feature-2 (heart/hardness) -->
<symbol id="icon-feature-2" viewBox="0 0 1024 1024"><path d="M330.24 574.677333c90.538667-85.333333 186.112-99.072 291.2-30.378666-18.986667-17.706667-38.570667-35.456-59.818667-55.466667 45.226667-70.4 107.861333-111.616 191.146667-116.181333 83.84-4.608 149.76 29.738667 193.365333 102.954666 65.962667 111.061333 36.352 252.416-64.810666 311.381334-46.933333 27.477333-100.053333 35.456-153.173334 33.194666-50.304-2.304-95.573333 10.282667-140.8 30.890667-147.029333 66.986667-295.082667 52.053333-442.112 1.109333a243.242667 243.242667 0 0 1-45.269333-23.466666c-55.338667-35.413333-64.853333-59.477333-52.522667-124.714667 23.466667-119.637333 65.365333-231.808 136.96-331.349333a4991.957333 4991.957333 0 0 0 124.586667-183.168c32.426667-49.194667 73.770667-82.346667 132.48-89.258667 46.378667-5.717333 92.757333-13.184 139.178667-14.848 13.354667-0.597333 30.72 10.837333 40.789333 22.272 16.725333 18.346667 28.501333 41.813333 43.008 61.866667 13.397333 18.816 12.288 34.858667-6.698667 46.336-51.413333 30.848-103.381333 52.053333-164.266666 24.576-17.365333-8.021333-41.386667-0.554667-61.525334-2.858667-30.165333-4.010667-32.981333 21.76-41.386666 39.466667-44.117333 92.714667-70.954667 189.44-60.330667 297.6z" fill="currentColor"/></symbol>
<!-- icon-feature-3 (drop/stable) -->
<symbol id="icon-feature-3" viewBox="0 0 1024 1024"><path d="M921.27086365 527.00628765h-194.98853263l-5.0331648 86.12304213a18.73455787 18.73455787 0 0 1-18.59474773 18.59474773H321.159168a18.92097138 18.92097138 0 0 1-18.59474773-19.43360853l-1.6777216-85.28418133H103.38158365l-5.91862898-5.0331648a21.25114027 21.25114027 0 0 1-7.59635058-16.91702614c0-6.75748978 2.5165824-12.62951538 7.59635058-16.03156196l397.52681244-378.23301404a23.58130915 23.58130915 0 0 1 16.91702614-6.75748978c6.75748978 0 12.67611875 2.5165824 16.87042275 6.75748978l398.41227662 378.23301404c9.27407218 8.43521138 9.27407218 23.62791253 0 32.06312392l-5.91862897 5.91862898zM301.72555947 737.2341248c0-28.70768071 23.62791253-52.33559325 52.33559324-52.33559325h317.36900267c28.70768071 0 52.33559325 23.62791253 52.33559324 52.33559325s-23.62791253 52.33559325-52.33559324 52.33559325H354.01454933a52.61521351 52.61521351 0 0 1-52.33559324-52.33559325z m51.49673244 158.73110471c0-28.70768071 25.30563413-52.33559325 56.52989724-52.33559324h202.5848832c31.22426311 0 56.57650062 23.62791253 56.57650063 52.33559324s-25.35223751 52.33559325-56.57650063 52.33559324H410.59104995c-31.22426311 0-57.36875805-23.62791253-57.36875804-52.33559324z" fill="currentColor"/></symbol>
<!-- icon-feature-4 (clock/duration) -->
<symbol id="icon-feature-4" viewBox="0 0 1024 1024"><path d="M512.006583 0a511.996343 511.996343 0 0 1 490.273069 660.036428l-46.225955-123.610545-344.792966 156.524596L768.004754 767.994514s-146.284669 182.855837-329.140506 219.427004l1.170278 0.585139c7.899372 3.730259 56.465882 25.746102 123.098549 33.426047A511.996343 511.996343 0 1 1 512.006583 0z m0 241.808559l-5.851387 0.365711a42.715123 42.715123 0 0 0-36.205456 35.254606l-0.585138 7.021664v226.009814l-156.524596 140.433282-4.388541 4.534825a42.641981 42.641981 0 0 0 55.222463 63.633831l6.143956-4.681109L531.02359 569.778787l5.33939-5.266248a71.094349 71.094349 0 0 0 17.773588-38.83858l0.511996-8.77708V284.45054l-0.365712-5.851387A42.641981 42.641981 0 0 0 512.006583 241.881701z" fill="currentColor"/><path d="M929.941883 609.495075l-219.427004 85.869101 104.520397 53.613331S724.046211 957.433161 585.148918 963.503975c0 0 204.57911 78.701152 334.333611-171.66506L1024.002926 845.525389l-94.061043-236.030314z" fill="currentColor"/></symbol>
<!-- icon-feature-5 (control) -->
<symbol id="icon-feature-5" viewBox="0 0 1024 1024"><path d="M857.6717252329054 425.1001104156086h-161.16549101744158l43.65459339321107-189.8201214590468c0-56.502090979895726-46.14337424438719-102.51093802428335-102.64546690011225-102.51093802428335-56.56935541781015 0-102.7127313380267 46.008845368558276-102.7127313380267 102.51093802428335 0 0-35.24654368139237 192.64522617562452-165.06682506482124 193.51966386851242 0 0-69.01326972866676 3.1614269061499884-69.01326805283743 84.75313646984358v292.9364394245602c0 48.43036345764928 39.41693548042983 87.8472989380791 87.8472989380791 87.84730061390844h381.18732499012617c58.923609068986714 0 80.11189360540494-65.91910726043122 89.32711657219708-94.43921050203691l85.15672477315962-277.8692153866986c0.8744376928878981-2.82510471657772 1.2780243203746207-5.8520027468988 1.2780226445452842-8.744371901390972 0.06726443791445373-48.497627895563724-39.41693548042983-88.18362112765135-87.8472989380791-88.18362112765135z m0 0" fill="currentColor"/><path d="M182.47172981158775 439.02384068475385h-19.775731340214698c-37.264475142996645 0-67.46618765663432 25.7622629629424-67.46618933246367 57.57832198652697v332.68969709456223c0 31.816059023584565 30.20171251363768 57.57832198652697 67.46618933246367 57.57832198652697h19.775731340214698c37.264475142996645 0 67.46618765663432-25.7622629629424 67.46618765663432-57.57832198652697v-332.68969709456223c0.06726443791445373-31.816059023584565-30.20171251363768-57.57832198652697-67.46618765663432-57.57832198652697z m-12.91476370042843 399.95409143745326c-18.430444257754964 0-33.43040385770212-14.932695162032704-33.43040385770212-33.43040385770212s14.932695162032704-33.43040385770212 33.43040385770212-33.430405533531456c18.430444257754964 0 33.43040385770212 14.932695162032704 33.43040385770212 33.430405533531456s-14.932695162032704 33.43040385770212-33.43040385770212 33.43040385770212z m0 0" fill="currentColor"/></symbol>
<!-- icon-feature-6 (natural) -->
<symbol id="icon-feature-6" viewBox="0 0 1024 1024"><path d="M721.792 129.301333A263.317333 263.317333 0 0 0 512 202.496a263.253333 263.253333 0 0 0-209.770667-73.194667C173.290667 141.888 64.213333 263.296 64 394.432c-0.021333 18.346667 2.197333 36.181333 5.674667 53.674667h176.149333l31.850667-112.533334a32.789333 32.789333 0 0 1 27.605333-23.68 32.810667 32.810667 0 0 1 32.426667 16.405334l118.08 208.576 54.037333-163.669334a32.810667 32.810667 0 0 1 27.541333-22.378666 32.853333 32.853333 0 0 1 31.722667 15.850666l48.405333 81.408h112.469334c18.090667 0 32.789333 14.741333 32.789333 32.917334s-14.677333 32.917333-32.789333 32.917333h-131.072a32.768 32.768 0 0 1-28.16-16.042667l-21.205334-35.690666-54.698666 165.653333a32.853333 32.853333 0 0 1-31.125334 22.570667 32.853333 32.853333 0 0 1-28.501333-16.64l-115.861333-204.629334-17.237334 60.906667a32.810667 32.810667 0 0 1-31.530666 23.914667H92.138667c1.322667 2.666667 2.304 5.44 3.712 8.064a928.896 928.896 0 0 0 316.416 344.682666C442.56 886.229333 477.269333 896 512 896s69.44-9.770667 99.754667-29.290667a929.408 929.408 0 0 0 316.309333-344.512 265.6 265.6 0 0 0 31.957333-127.765333c-0.213333-131.093333-109.312-252.522667-238.229333-265.130667z" fill="currentColor"/></symbol>
<!-- icon-feature-7 (timer/14min) -->
<symbol id="icon-feature-7" viewBox="0 0 1024 1024"><path d="M137.2 630.9c-5.5-16.8-23.6-25.9-40.4-20.4s-25.9 23.6-20.4 40.4" fill="currentColor"/><path d="M500.2 957.9c-96.1 0-187.5-30.1-264.6-87-37.1-27.4-69.6-60.2-96.6-97.5-27.4-37.8-48.5-79.4-62.9-123.6L137 630c51.2 157.8 197.2 263.8 363.2 263.8C710.7 893.8 882 722.5 882 512S710.8 130.2 500.2 130.2c-102 0-197.9 39.7-270.1 111.9l-45.3-45.2c40.9-41 88.6-73.1 141.7-95.6C381.6 78 440 66.2 500.2 66.2c60.2 0 118.6 11.8 173.5 35 53.1 22.5 100.8 54.6 141.7 95.5 40.9 40.9 73.1 88.6 95.5 141.7 23.3 55 35 113.4 35 173.5s-11.8 118.6-35 173.5c-22.5 53.1-54.6 100.8-95.5 141.7-40.9 40.9-88.6 73.1-141.7 95.5-54.9 23.5-113.3 35.3-173.5 35.3z" fill="currentColor"/><path d="M212 247.2c-17.6 0-32-14.4-32-32v-98.6c0-17.6 14.4-32 32-32s32 14.4 32 32v98.6c0 17.6-14.4 32-32 32zM498.6 189.5c-178.7 0-323.5 144.8-323.5 323.5s144.8 323.5 323.5 323.5S822.1 691.7 822.1 513 677.3 189.5 498.6 189.5z m249.5 417.2c-5.8 16.6-24.1 25.5-40.7 19.7l-202.8-70.5h-1.4c-14.4 0-26.6-9.6-30.6-22.7-2.5-6.2-3.1-13.1-1.4-19.9V295.6c0-17.6 14.4-32 32-32s32 14.4 32 32v203.2L728.4 566c16.6 5.8 25.5 24.1 19.7 40.7z" fill="currentColor"/></symbol>
<!-- icon-feature-8 (4-6h) -->
<symbol id="icon-feature-8" viewBox="0 0 1024 1024"><path d="M992 178.88c0 151.424-197.12 226.432-254.72 128.064-20.8-35.456-16.32-62.272 5.504-92.16l9.472-12.032c10.624-13.056 13.44-18.176 13.44-23.872l-0.192-2.432c-0.768-4.928-4.096-10.24-13.248-21.504l-9.472-11.968a127.488 127.488 0 0 1-10.24-16.448h-29.184c-52.992 0-95.936 42.944-95.936 95.872l0.064 101.184c77.12 30.08 128.384 97.536 128.384 185.92 0 56.512-23.04 95.936-78.4 158.784l-28.8 33.216c-21.504 26.112-31.744 44.8-33.28 58.944v225.216a32 32 0 0 1-32 31.936H460.672a32 32 0 0 1-32-32l0.192-222.016c-1.728-17.28-11.968-35.968-33.472-62.08l-4.16-4.992-35.264-40.448c-47.744-55.936-67.84-93.76-67.84-146.56 0-88 50.88-155.264 127.488-185.472V222.4c0-52.928-42.88-95.808-95.872-95.808h-28.16a127.168 127.168 0 0 1-10.368 16.512l-9.472 11.968c-10.624 13.056-13.44 18.176-13.44 23.936 0 5.76 2.816 10.88 13.44 23.872l9.472 12.032c21.76 29.888 26.24 56.704 5.504 92.16C229.12 405.44 32 330.432 32 179.008 32 27.52 229.12-47.488 286.72 50.88c2.368 4.096 4.416 8 6.144 11.84h26.88a159.808 159.808 0 0 1 159.872 159.68v85.888a285.952 285.952 0 0 1 64-0.128l-0.128-85.76A159.808 159.808 0 0 1 703.36 62.72h27.712c1.792-3.84 3.84-7.872 6.208-11.968 57.6-98.368 254.72-23.296 254.72 128.128zM351.36 699.264l15.36 17.856 3.968 4.672c17.856 21.632 25.408 35.456 26.368 44.928l-0.32 176.384-1.216-0.32c-10.88-2.944-20.928-5.76-26.496-7.488-89.152-28.608-136.896-78.08-112.128-160.64 13.376-44.736 49.344-71.616 94.4-75.392z m416 75.392c24.64 82.432-23.232 131.84-112.64 160.512l-3.648 1.152c-5.568 1.664-13.248 3.776-21.632 6.016l-2.176 0.512 0.064-182.4c0.576-2.816 6.592-14.08 20.48-31.744l9.472-11.584 15.552-17.856c45.12 3.776 81.088 30.656 94.528 75.392z" fill="currentColor"/></symbol>
<!-- icon-feature-9 (mountain/altitude) -->
<symbol id="icon-feature-9" viewBox="0 0 1024 1024"><path d="M841.7 423.8c-32.4-76-77.2-138.1-133-184.7-22.7-18.9-50.1-24.6-75.2-15.6-26.1 9.4-45.1 33.4-50.8 64.1v0.2L568.1 401l-18.2-8.3 0.5-240.6c0-6.6-5.4-12-12-12h-52c-6.6 0-12 5.4-12 12l0.5 240.6-18.2 8.3-14.6-113-0.1-0.5c-5.7-30.7-24.6-54.7-50.7-64.1-25.2-9.1-52.6-3.4-75.3 15.5-55.9 46.6-100.7 108.8-133.1 184.7-41.2 96.6-62.2 215.3-62.2 352.7 0 41.9 14.5 72.1 43.2 89.7 32.5 20 81.8 22.9 146.6 8.8 47.7-10.4 91.3-27.9 103.9-34.3 25.1-12.7 44.3-32 57.1-57.6 11.5-23 17.4-50 17.4-80.2v-0.4L467.7 477l31.1-12.7 0.5-0.3c6.7-3.9 18.5-3.9 25.3 0l0.5 0.3 31.1 12.7-20.7 225.1v0.8c0 30.2 5.8 57.2 17.4 80.2 12.8 25.5 32 44.9 57.1 57.6 12.6 6.4 56.3 23.9 103.9 34.3 26.8 5.9 51 8.8 72.5 8.8 30.3 0 55.1-5.9 74.1-17.5 28.7-17.6 43.2-47.8 43.2-89.7 0.1-137.5-20.8-256.2-62-352.8z m-537-78.2c-0.6 0.8-49.4 66-80.6 160-1.3 3.8-4.8 6.2-8.6 6.2-0.9 0-1.9-0.1-2.9-0.5-4.8-1.6-7.4-6.7-5.8-11.5 32.2-97.1 81.3-162.5 83.4-165.2 3-4 8.7-4.8 12.8-1.8 3.9 3.1 4.7 8.8 1.7 12.8z m531.6 326.7h-0.8c-4.7 0-8.7-3.6-9.1-8.3-3.2-36.9-8.4-71.4-15.6-102.5-1.1-4.9 1.9-9.8 6.8-10.9 4.9-1.1 9.8 1.9 10.9 6.8 7.4 32 12.8 67.4 16 105.1 0.5 4.9-3.2 9.3-8.2 9.8z" fill="currentColor"/></symbol>

<symbol id="icon-godown" viewBox="0 0 1024 1024"><path d="M745.634 548.661S716.831-39.44 126.33 82.977c0 0-21.602 7.206 0 19.206 0 0 393.673 129.623 295.258 446.478H299.161s-69.606 4.794-23.997 67.205L544 927.926s35.998 64.812 84.013-4.8l271.246-316.855s33.608-45.61-21.602-57.61H745.634z m0 0" fill="currentColor"></path></symbol>
</svg>
